<?xml version="1.0" standalone="no"?>
<!DOCTYPE svg PUBLIC "-//W3C//DTD SVG 20010904//EN"
 "http://www.w3.org/TR/2001/REC-SVG-20010904/DTD/svg10.dtd">
<svg version="1.0" xmlns="http://www.w3.org/2000/svg"
 width="1600.000000pt" height="1066.000000pt" viewBox="0 0 1600.000000 1066.000000"
 preserveAspectRatio="xMidYMid meet">

<g transform="translate(0.000000,1066.000000) scale(0.100000,-0.100000)"
fill="#000000" stroke="none">
<path d="M0 8861 c0 -1714 1 -1800 18 -1805 9 -3 33 -2 51 4 35 10 190 7 253
-5 20 -4 42 -4 49 1 23 14 176 20 304 12 11 -1 43 2 70 7 28 4 56 8 63 8 6 0
12 4 12 9 0 7 109 10 284 8 21 0 43 3 50 8 19 15 89 22 103 10 10 -8 18 -7 31
5 14 13 21 14 30 5 9 -9 15 -9 23 -1 6 6 18 9 25 6 8 -3 18 4 23 18 8 21 10
22 16 7 4 -10 11 -18 17 -18 5 0 8 8 6 18 -2 11 4 17 17 17 11 1 26 4 33 8 6
5 16 5 22 2 5 -3 18 -1 27 4 15 9 13 10 -12 11 -25 1 -28 3 -15 13 16 13 23
87 8 87 -4 0 -8 11 -8 25 0 20 5 25 25 25 30 0 33 16 5 23 -11 3 -20 11 -20
19 0 9 3 10 8 2 12 -19 73 -28 83 -13 4 7 11 10 14 7 4 -4 -2 -16 -13 -28 -11
-12 -18 -28 -16 -35 3 -7 1 -16 -5 -20 -6 -3 -11 -11 -11 -17 0 -7 6 -6 15 2
12 10 15 10 15 -4 0 -9 8 -16 20 -16 11 0 20 4 20 10 0 5 -9 15 -20 22 -11 7
-20 17 -20 22 0 15 33 35 58 36 26 0 28 6 6 28 -20 20 -1 30 22 12 8 -7 17
-10 21 -6 4 3 0 12 -9 19 -8 6 -18 20 -21 30 -6 15 -4 16 13 7 16 -8 26 -6 50
12 37 27 39 42 3 34 -26 -5 -26 -5 -6 5 12 6 24 22 28 36 3 13 10 21 16 17 8
-4 7 -9 -2 -15 -10 -6 -10 -9 -2 -9 7 0 21 10 33 22 11 12 20 18 20 13 0 -8
24 18 50 54 8 12 20 21 27 21 17 0 17 17 1 23 -20 7 -2 19 33 23 35 4 53 14
25 14 -33 0 -6 18 36 24 50 8 83 29 75 49 -4 10 1 13 19 9 13 -2 31 1 39 8 8
7 25 10 38 6 22 -5 24 -3 19 21 -4 23 -2 25 17 20 12 -3 19 -1 15 4 -3 6 5 7
19 4 14 -4 28 -2 31 4 4 5 12 9 19 7 7 -1 8 -1 3 2 -5 3 2 13 15 24 13 11 19
17 13 14 -7 -3 -26 8 -44 24 -18 17 -29 31 -26 31 3 1 11 2 18 3 6 0 16 17 21
36 5 19 13 39 18 45 16 16 10 27 -13 23 -15 -2 -22 -9 -22 -21 1 -9 -4 -17
-11 -17 -11 0 -11 8 -4 32 5 18 9 34 9 36 0 1 -9 -2 -20 -8 -16 -9 -18 -8 -14
5 5 13 24 20 47 16 4 0 7 13 7 30 l0 31 -20 -23 c-12 -15 -19 -19 -20 -10 0
10 -9 12 -32 8 -30 -5 -31 -5 -10 5 13 6 21 17 18 24 -3 7 0 14 7 17 8 2 6 12
-7 32 -14 22 -20 25 -27 14 -6 -10 -9 -8 -9 9 0 13 6 22 15 22 8 0 15 5 15 11
0 6 -7 9 -15 5 -9 -3 -15 0 -15 9 0 21 12 19 39 -6 28 -26 41 -17 16 11 -10
11 -15 23 -12 27 4 3 7 1 7 -5 0 -7 14 -12 30 -12 17 0 30 5 30 10 0 6 -4 10
-10 10 -5 0 -10 5 -10 10 0 15 16 12 34 -5 20 -21 29 -19 21 5 -5 14 -1 22 12
26 10 3 36 15 58 25 37 17 38 19 17 25 -13 4 -21 12 -19 18 4 12 31 13 62 1
16 -5 17 -5 5 4 -12 8 -13 14 -3 30 10 15 10 21 0 25 -9 3 -8 7 3 15 18 13 9
22 -31 30 -45 9 -50 31 -7 31 26 0 37 7 53 30 22 33 35 38 35 15 0 -20 29 -19
37 1 5 13 9 12 29 -7 24 -23 46 -18 43 9 -3 29 1 37 10 23 7 -12 14 -10 36 8
l28 21 -24 1 c-21 1 -20 2 6 8 17 4 33 3 36 -2 3 -5 9 -2 12 7 4 9 2 16 -3 16
-6 0 -10 6 -10 13 0 6 12 0 25 -15 27 -32 35 -34 35 -13 0 8 -4 15 -10 15 -5
0 -10 5 -10 10 0 6 9 10 19 10 11 0 23 5 26 10 5 8 11 8 20 0 17 -14 29 3 20
29 -7 22 24 39 37 19 6 -10 8 -10 8 0 0 6 7 12 15 12 8 0 15 -4 15 -10 0 -5 5
-10 10 -10 18 0 11 25 -11 38 -16 10 -24 10 -34 2 -11 -9 -22 -9 -42 -1 l-28
11 32 -5 c18 -2 35 0 38 5 3 6 17 10 30 10 12 0 26 7 29 16 9 24 8 27 -13 21
-15 -4 -18 -1 -13 12 3 9 10 19 16 23 6 4 -5 8 -24 9 l-35 1 40 19 c22 10 50
19 63 19 12 0 22 5 22 10 0 6 18 10 40 10 33 0 40 3 40 20 0 11 5 20 10 20 6
0 10 -5 10 -10 0 -6 12 -9 28 -8 15 1 37 -2 49 -6 13 -4 24 -2 29 5 4 7 3 9
-4 6 -5 -4 -18 -4 -28 0 -15 6 -15 7 4 14 12 5 22 13 22 19 0 13 -16 13 -40
-2 -24 -15 -39 -3 -19 16 16 16 89 31 89 19 0 -4 11 -13 25 -20 26 -11 33 -5
15 13 -7 7 -7 19 -1 35 7 17 10 19 10 7 1 -10 6 -18 13 -18 6 0 8 -3 5 -7 -7
-6 21 -32 36 -33 15 0 6 33 -14 51 -11 10 -18 23 -14 28 7 13 -41 34 -64 28
-13 -4 -13 -5 2 -6 9 0 17 -5 17 -11 0 -12 -2 -12 -36 1 -27 10 -27 9 -11 -9
18 -19 23 -42 9 -42 -4 0 -15 18 -25 40 -9 22 -22 40 -28 40 -8 0 -8 5 1 15
11 13 8 15 -18 15 -23 0 -42 10 -69 37 -20 21 -45 36 -55 35 -11 -2 -23 8 -33
27 -8 17 -18 31 -21 31 -3 0 -3 -4 1 -9 9 -16 -9 -20 -23 -5 -7 7 -11 15 -10
16 1 2 -5 13 -13 26 -11 14 -22 20 -33 16 -11 -4 -16 -1 -16 10 0 9 6 16 13
17 6 0 1 5 -13 10 -14 6 -32 8 -41 6 -12 -3 -15 1 -12 14 6 23 0 24 -32 3 -14
-9 -36 -14 -50 -12 -14 3 -25 2 -25 -3 0 -4 -15 -7 -32 -6 -29 2 -33 5 -33 31
-1 16 -6 31 -12 33 -13 5 -5 43 9 43 6 0 8 -7 5 -15 -5 -11 0 -13 23 -8 22 4
30 2 30 -8 0 -8 9 -3 20 11 l20 25 0 -23 c0 -19 4 -22 21 -17 15 5 19 4 15 -4
-12 -19 2 -12 31 15 15 14 36 30 46 35 28 15 20 -7 -10 -30 -27 -19 -27 -20
-6 -21 12 0 26 6 30 13 4 8 18 16 29 19 18 5 21 2 16 -15 -4 -17 -1 -19 16
-15 12 3 22 2 24 -4 6 -18 38 4 38 27 0 12 7 28 15 35 8 7 15 20 15 30 0 13 9
18 38 19 87 3 87 2 90 49 3 34 7 42 23 42 25 0 22 33 -4 38 -12 2 -17 -3 -17
-17 0 -26 -16 -26 -81 -2 -28 11 -58 17 -67 15 -15 -5 -15 -4 1 6 9 6 17 15
17 20 0 14 -34 12 -48 -2 -7 -7 -12 -9 -12 -5 0 4 -10 -1 -22 -12 -13 -13 -29
-19 -43 -15 -13 3 -27 -1 -34 -10 -14 -17 -56 -23 -46 -7 3 5 0 13 -6 17 -6 3
-15 1 -19 -5 -5 -9 -13 -9 -34 0 -18 9 -23 15 -14 20 7 5 -1 7 -20 7 -18 -1
-35 -4 -37 -9 -6 -9 -55 13 -55 24 0 5 9 5 20 2 27 -9 25 9 -2 28 -16 11 -19
19 -12 24 6 4 14 15 18 23 3 8 4 5 2 -7 -3 -19 0 -23 21 -23 16 0 22 4 17 13
-6 9 -4 9 7 -1 11 -10 18 -7 40 17 31 35 59 42 76 21 11 -13 12 -11 13 13 0
21 5 27 23 28 12 0 37 2 55 3 17 2 32 1 32 -3 0 -3 11 -6 24 -6 13 0 22 4 18
9 -3 5 2 6 12 3 10 -4 36 -10 59 -13 23 -4 50 -14 60 -22 15 -13 22 -14 38 -4
13 8 37 10 69 6 34 -5 50 -3 50 5 0 6 -10 11 -22 11 -27 0 -21 5 17 14 23 5
26 4 15 -4 -11 -8 -5 -9 24 -4 28 5 37 4 32 -5 -4 -6 -2 -11 3 -11 6 0 11 4
11 9 0 13 34 23 54 15 9 -3 16 -13 16 -21 0 -13 3 -13 16 -3 12 11 15 11 12
-1 -4 -17 -36 -32 -50 -23 -5 3 -7 12 -4 20 3 7 1 16 -4 19 -6 4 -10 -1 -10
-9 0 -18 -3 -19 -80 -21 -76 -3 -105 -12 -89 -31 6 -8 22 -14 35 -14 13 0 24
-4 24 -10 0 -5 -7 -10 -15 -10 -8 0 -15 -5 -15 -11 0 -6 9 -9 20 -6 11 3 20 1
20 -4 0 -5 7 -9 17 -9 15 0 15 1 0 18 -10 10 -17 22 -17 25 0 10 74 4 81 -7 4
-4 16 0 28 10 14 13 34 17 63 16 29 -2 39 0 29 6 -25 18 -7 37 32 34 34 -3 37
-1 37 22 0 27 18 34 37 15 9 -9 10 -7 6 9 -3 12 -8 20 -12 18 -3 -2 -15 0 -26
4 -17 6 -15 8 12 12 18 2 30 1 28 -3 -9 -14 23 -29 54 -25 41 4 43 8 32 37 -5
13 -10 18 -10 12 -1 -18 -18 -16 -18 2 0 13 10 19 28 17 4 -1 6 13 5 30 -1 27
-6 32 -31 35 -35 5 -39 8 -30 23 5 8 11 8 19 1 16 -14 26 -4 26 26 0 23 12 28
53 25 26 -3 12 14 -23 26 -28 10 -30 10 -36 -24 -3 -19 -10 -34 -15 -34 -12 0
-11 37 1 45 20 12 10 51 -16 65 -14 8 -32 28 -40 45 -8 16 -12 22 -9 13 3 -12
-1 -18 -11 -18 -8 0 -13 -4 -10 -9 3 -5 -10 -11 -29 -13 -28 -3 -35 0 -38 17
-3 19 -4 18 -15 -5 l-11 -25 0 28 c-1 33 -18 36 -24 5 l-4 -23 -2 23 c0 13 -7
22 -17 22 -12 0 -15 7 -12 25 5 24 4 25 -48 24 -30 -1 -54 -6 -54 -10 0 -13
-44 -11 -58 3 -10 10 -14 8 -18 -9 -6 -20 -11 -22 -54 -18 -27 2 -57 9 -69 16
-17 12 -23 10 -46 -15 -22 -23 -29 -26 -36 -15 -5 8 -9 17 -9 22 0 4 -7 7 -16
7 -14 0 -15 -2 -3 -16 12 -15 11 -16 -8 -10 -13 4 -28 4 -35 -1 -7 -4 -17 -8
-23 -8 -19 0 -57 -34 -50 -44 3 -6 3 -11 -2 -12 -54 -5 -89 -2 -96 6 -4 6 -7
2 -5 -9 2 -16 -4 -20 -35 -22 -21 -2 -49 1 -63 6 -19 7 -28 5 -42 -10 -18 -20
-18 -20 -15 12 3 23 2 29 -5 19 -5 -7 -15 -10 -21 -7 -7 5 -11 -2 -11 -19 0
-22 -3 -24 -19 -16 -16 9 -18 8 -14 -9 7 -26 -1 -25 -26 2 l-20 21 -10 -26
c-10 -26 -19 -31 -52 -28 -9 1 -22 -5 -29 -14 -18 -22 -32 -18 -18 5 9 13 24
20 45 20 35 0 51 16 34 33 -8 8 -14 8 -23 -1 -7 -7 -20 -12 -29 -12 -9 0 -22
-7 -29 -15 -7 -9 -29 -15 -51 -15 -39 0 -39 0 -19 20 33 33 21 59 -24 51 -5
-1 -6 5 -3 14 6 14 3 17 -25 19 -6 1 -25 13 -41 29 -16 15 -35 26 -41 25 -6
-2 -11 1 -11 6 0 5 -24 19 -52 32 -36 15 -53 29 -53 41 0 15 -2 16 -10 3 -6
-10 -10 -11 -10 -3 0 9 -17 13 -53 12 -36 -1 -63 4 -81 16 -26 17 -27 17 -41
-1 -11 -15 -15 -16 -16 -4 -2 20 -2 22 6 43 6 13 3 16 -10 11 -9 -4 -26 -1
-38 5 -18 10 -50 8 -156 -9 -74 -11 -149 -20 -167 -20 -19 0 -34 -4 -34 -10 0
-15 -22 -12 -64 10 -43 21 -143 22 -156 0 -4 -6 -18 -12 -32 -14 -15 -1 -37
-9 -50 -17 -24 -15 -69 -17 -102 -4 -11 5 -21 3 -27 -6 -7 -11 -9 -11 -9 4 0
20 -20 23 -38 5 -9 -9 -12 -8 -12 5 0 9 -7 17 -16 17 -10 0 -14 6 -11 14 4 9
-5 21 -21 32 -15 9 -36 27 -47 39 -11 12 -30 25 -42 29 -13 4 -23 11 -23 14 0
4 -15 23 -32 42 -18 19 -33 37 -33 40 -1 3 -8 18 -15 33 -12 24 -12 30 1 38 8
5 -134 9 -368 9 l-383 0 0 -1799z m3390 1400 c0 -12 -28 -22 -34 -12 -3 5 -3
11 1 15 9 9 33 7 33 -3z m-406 -60 c-21 -21 -29 -19 -21 4 4 8 14 15 23 15 16
0 16 -2 -2 -19z m-689 -120 c3 -5 1 -12 -5 -16 -5 -3 -10 1 -10 9 0 18 6 21
15 7z m-135 -11 c0 -5 -7 -10 -16 -10 -8 0 -12 5 -9 10 3 6 10 10 16 10 5 0 9
-4 9 -10z m100 -20 c0 -5 -4 -10 -10 -10 -5 0 -10 5 -10 10 0 6 5 10 10 10 6
0 10 -4 10 -10z m1347 -22 c-3 -8 -6 -5 -6 6 -1 11 2 17 5 13 3 -3 4 -12 1
-19z m-1297 -2 c0 -3 -4 -8 -10 -11 -5 -3 -10 -1 -10 4 0 6 5 11 10 11 6 0 10
-2 10 -4z m37 -12 c-3 -3 -12 -4 -19 -1 -8 3 -5 6 6 6 11 1 17 -2 13 -5z
m1333 -34 c0 -5 -4 -10 -10 -10 -5 0 -10 5 -10 10 0 6 5 10 10 10 6 0 10 -4
10 -10z m-1300 -10 c0 -5 -4 -10 -10 -10 -5 0 -10 5 -10 10 0 6 5 10 10 10 6
0 10 -4 10 -10z m1112 -87 c-6 -2 -10 -9 -6 -14 3 -5 -6 -9 -20 -9 -14 0 -26
4 -26 9 0 11 19 19 45 19 11 0 14 -2 7 -5z m-432 -13 c0 -5 -2 -10 -4 -10 -3
0 -8 5 -11 10 -3 6 -1 10 4 10 6 0 11 -4 11 -10z m470 -20 c0 -5 -4 -10 -9
-10 -6 0 -13 5 -16 10 -3 6 1 10 9 10 9 0 16 -4 16 -10z m-225 -50 c-3 -5 -10
-10 -16 -10 -5 0 -9 5 -9 10 0 6 7 10 16 10 8 0 12 -4 9 -10z m80 0 c-3 -5
-10 -10 -16 -10 -5 0 -9 5 -9 10 0 6 7 10 16 10 8 0 12 -4 9 -10z m-788 -72
c-3 -7 -5 -2 -5 12 0 14 2 19 5 13 2 -7 2 -19 0 -25z m30 -15 c-3 -10 -5 -2
-5 17 0 19 2 27 5 18 2 -10 2 -26 0 -35z m-67 -13 c0 -5 -4 -10 -10 -10 -5 0
-10 5 -10 10 0 6 5 10 10 10 6 0 10 -4 10 -10z m440 -30 c0 -5 -5 -10 -11 -10
-5 0 -7 5 -4 10 3 6 8 10 11 10 2 0 4 -4 4 -10z m70 -6 c0 -2 -9 -4 -21 -4
-11 0 -18 4 -14 10 5 8 35 3 35 -6z m71 -41 c12 -14 12 -15 0 -9 -8 5 -16 3
-22 -5 -6 -10 -8 -7 -6 9 2 26 10 28 28 5z m-648 -71 c-4 -15 10 -15 25 0 8 8
15 8 27 -2 10 -8 15 -9 15 -1 0 6 5 11 11 11 6 0 8 -8 4 -19 -4 -13 1 -24 13
-33 19 -14 47 -78 33 -78 -4 0 -16 9 -26 20 -25 27 -32 25 -40 -10 -8 -35 -23
-38 -48 -7 -15 18 -28 22 -60 20 -36 -2 -38 -1 -12 5 20 5 26 10 17 15 -7 5
-21 6 -31 2 -12 -3 -21 -1 -24 7 -2 7 -3 5 -2 -4 2 -10 -3 -18 -10 -18 -7 0
-15 -5 -17 -12 -2 -6 -15 0 -31 15 -29 30 -57 35 -57 12 0 -8 -4 -15 -10 -15
-15 0 5 43 26 55 10 5 25 18 32 28 16 21 32 22 32 3 0 -20 19 -31 32 -18 6 6
26 8 46 5 23 -4 33 -3 29 5 -4 5 -17 8 -29 4 -14 -3 -19 -2 -14 7 4 6 11 9 16
6 5 -3 12 -1 15 5 9 14 41 7 38 -8z m-251 -44 c-30 -12 -35 -8 -17 12 14 16
20 17 26 8 5 -8 2 -16 -9 -20z m398 -110 c0 -4 -10 -3 -22 2 -13 6 -31 13 -40
16 -10 4 -18 10 -18 14 0 5 18 1 40 -8 22 -9 40 -20 40 -24z m-200 22 c0 -5
-4 -10 -9 -10 -6 0 -13 5 -16 10 -3 6 1 10 9 10 9 0 16 -4 16 -10z m680 -319
c0 -5 3 -16 6 -25 3 -9 1 -16 -6 -16 -6 0 -9 4 -6 9 3 5 -1 12 -10 15 -8 3
-12 10 -9 16 8 13 25 13 25 1z m-283 -173 c-3 -7 -5 -2 -5 12 0 14 2 19 5 13
2 -7 2 -19 0 -25z m-17 -29 c13 -9 13 -10 -2 -6 -9 3 -18 1 -20 -5 -3 -7 -10
-8 -17 -4 -11 7 -11 10 0 17 18 11 21 11 39 -2z m-40 -60 c0 -17 -28 -34 -38
-24 -3 3 0 5 7 5 10 0 11 10 6 38 -6 35 -6 36 9 17 8 -11 16 -27 16 -36z m95
31 c3 -5 -3 -10 -15 -10 -12 0 -18 5 -15 10 3 6 10 10 15 10 5 0 12 -4 15 -10z
m-45 -8 c0 -13 -12 -22 -22 -16 -10 6 -1 24 13 24 5 0 9 -4 9 -8z m47 -38 c-3
-3 -12 -4 -19 -1 -8 3 -5 6 6 6 11 1 17 -2 13 -5z m-120 -90 c-3 -3 -12 -4
-19 -1 -8 3 -5 6 6 6 11 1 17 -2 13 -5z m43 -4 c0 -5 -4 -10 -10 -10 -5 0 -10
5 -10 10 0 6 5 10 10 10 6 0 10 -4 10 -10z m-140 -10 c0 -5 -5 -10 -11 -10 -5
0 -7 5 -4 10 3 6 8 10 11 10 2 0 4 -4 4 -10z m-220 -210 c0 -5 -5 -10 -11 -10
-5 0 -7 5 -4 10 3 6 8 10 11 10 2 0 4 -4 4 -10z m-40 -57 c0 -12 -2 -12 -15 1
-8 8 -15 20 -15 27 0 9 4 8 15 -1 8 -7 15 -19 15 -27z m40 27 c0 -5 -4 -10
-10 -10 -5 0 -10 5 -10 10 0 6 5 10 10 10 6 0 10 -4 10 -10z m-90 -100 c0 -5
-7 -10 -15 -10 -8 0 -15 5 -15 10 0 6 7 10 15 10 8 0 15 -4 15 -10z m-90 -476
c0 -8 5 -14 10 -14 6 0 10 -8 10 -17 0 -14 -3 -14 -20 5 -20 22 -28 58 -10 47
6 -3 10 -13 10 -21z m-2000 -278 c0 -7 7 -19 15 -26 19 -16 15 -32 -11 -38
-74 -16 -83 -15 -96 13 -11 24 -10 29 12 46 29 22 80 25 80 5z m363 -20 c53
-36 28 -95 -55 -129 -35 -15 -41 -14 -110 10 -83 28 -98 38 -98 62 0 25 43 62
82 70 61 14 151 7 181 -13z m216 -15 c35 -30 32 -71 -6 -93 -28 -17 -36 -18
-59 -6 -15 7 -33 22 -40 33 -12 18 -10 24 12 53 29 37 60 41 93 13z"/>
<path d="M2330 9530 c0 -5 5 -10 10 -10 6 0 10 5 10 10 0 6 -4 10 -10 10 -5 0
-10 -4 -10 -10z"/>
<path d="M981 10625 c-13 -36 -8 -60 11 -49 6 4 8 -2 4 -17 -3 -13 -3 -18 0
-11 9 18 34 15 35 -5 0 -10 3 -13 5 -7 4 8 14 8 40 -1 45 -15 85 -3 150 46 25
19 51 34 57 34 7 0 12 7 12 15 0 8 7 18 15 22 8 4 -59 7 -150 7 l-166 1 -13
-35z"/>
<path d="M2011 10642 c37 -28 77 -42 117 -42 20 0 32 -4 25 -8 -9 -6 311 -8
327 -2 29 10 197 30 227 26 38 -5 75 -24 86 -43 7 -12 24 -13 85 -8 73 7 79 9
115 47 28 30 41 37 47 28 8 -13 30 -6 30 11 0 5 -210 9 -541 9 -523 0 -541 -1
-518 -18z"/>
<path d="M3091 10655 c8 -7 78 -9 85 -2 4 4 -14 7 -41 7 -27 0 -46 -2 -44 -5z"/>
<path d="M3240 10646 c0 -6 9 -12 20 -12 11 0 20 3 20 7 0 4 -9 9 -20 12 -12
3 -20 0 -20 -7z"/>
<path d="M3450 10590 c0 -5 5 -10 11 -10 5 0 7 5 4 10 -3 6 -8 10 -11 10 -2 0
-4 -4 -4 -10z"/>
<path d="M3485 10551 c-3 -5 -1 -12 5 -16 5 -3 10 1 10 9 0 18 -6 21 -15 7z"/>
<path d="M3530 10550 c0 -5 9 -10 20 -10 11 0 20 5 20 10 0 6 -9 10 -20 10
-11 0 -20 -4 -20 -10z"/>
<path d="M3582 10525 c-12 -9 -31 -14 -41 -10 -11 3 -22 1 -26 -5 -3 -5 -2
-10 4 -10 5 0 13 -9 16 -20 3 -11 15 -20 26 -20 22 0 24 10 7 29 -11 11 -9 13
10 8 15 -3 25 0 29 8 10 27 -1 36 -25 20z"/>
<path d="M3710 10490 c-12 -8 -10 -10 8 -10 13 0 20 4 17 10 -7 12 -6 12 -25
0z"/>
<path d="M3840 10480 c0 -19 3 -21 12 -12 9 9 9 15 0 24 -9 9 -12 7 -12 -12z"/>
<path d="M3602 10478 c7 -19 38 -22 38 -4 0 10 -9 16 -21 16 -12 0 -19 -5 -17
-12z"/>
<path d="M3760 10475 c0 -8 -5 -15 -11 -15 -5 0 -8 -4 -4 -10 3 -5 14 -2 25 7
10 9 17 20 14 25 -9 13 -24 9 -24 -7z"/>
<path d="M3920 10485 c0 -10 29 -24 34 -17 3 6 -3 12 -14 15 -11 3 -20 4 -20
2z"/>
<path d="M3520 10220 c0 -5 7 -10 15 -10 8 0 15 5 15 10 0 6 -7 10 -15 10 -8
0 -15 -4 -15 -10z"/>
<path d="M3780 10120 c0 -11 5 -20 10 -20 6 0 10 9 10 20 0 11 -4 20 -10 20
-5 0 -10 -9 -10 -20z"/>
<path d="M3856 10115 c4 -8 10 -15 15 -15 5 0 9 7 9 15 0 8 -7 15 -15 15 -9 0
-12 -6 -9 -15z"/>
<path d="M3914 10116 c-3 -8 -4 -21 -1 -28 3 -8 6 -6 6 5 1 10 6 15 11 12 6
-3 10 -2 10 4 0 17 -20 23 -26 7z"/>
<path d="M2380 10110 c0 -5 5 -10 10 -10 6 0 10 5 10 10 0 6 -4 10 -10 10 -5
0 -10 -4 -10 -10z"/>
<path d="M3690 10070 c0 -5 5 -10 10 -10 6 0 10 5 10 10 0 6 -4 10 -10 10 -5
0 -10 -4 -10 -10z"/>
<path d="M3710 9904 c0 -8 5 -12 10 -9 6 3 10 10 10 16 0 5 -4 9 -10 9 -5 0
-10 -7 -10 -16z"/>
<path d="M3625 9811 c-6 -11 9 -23 19 -14 9 9 7 23 -3 23 -6 0 -12 -4 -16 -9z"/>
<path d="M3580 9801 c0 -6 5 -13 10 -16 6 -3 10 1 10 9 0 9 -4 16 -10 16 -5 0
-10 -4 -10 -9z"/>
<path d="M3540 9790 c0 -5 5 -10 10 -10 6 0 10 5 10 10 0 6 -4 10 -10 10 -5 0
-10 -4 -10 -10z"/>
<path d="M3610 9771 c0 -17 18 -21 24 -6 3 9 0 15 -9 15 -8 0 -15 -4 -15 -9z"/>
<path d="M3415 9760 c3 -5 8 -10 11 -10 2 0 4 5 4 10 0 6 -5 10 -11 10 -5 0
-7 -4 -4 -10z"/>
<path d="M3644 9746 c-8 -22 3 -33 18 -18 9 9 9 15 0 24 -9 9 -13 7 -18 -6z"/>
<path d="M3741 9751 c-10 -6 -10 -10 -1 -16 13 -8 24 -1 19 14 -3 6 -10 7 -18
2z"/>
<path d="M3040 9725 c0 -9 5 -15 11 -13 6 2 11 8 11 13 0 5 -5 11 -11 13 -6 2
-11 -4 -11 -13z"/>
<path d="M3186 9731 c-7 -11 18 -33 27 -24 4 3 7 12 7 20 0 15 -26 18 -34 4z"/>
<path d="M3345 9730 c3 -5 8 -10 11 -10 2 0 4 5 4 10 0 6 -5 10 -11 10 -5 0
-7 -4 -4 -10z"/>
<path d="M3810 9723 c0 -13 5 -23 10 -23 13 0 13 11 0 30 -8 12 -10 11 -10 -7z"/>
<path d="M3250 9720 c0 -5 7 -10 15 -10 8 0 15 5 15 10 0 6 -7 10 -15 10 -8 0
-15 -4 -15 -10z"/>
<path d="M3770 9710 c0 -5 5 -10 10 -10 6 0 10 5 10 10 0 6 -4 10 -10 10 -5 0
-10 -4 -10 -10z"/>
<path d="M3108 9693 c7 -3 16 -2 19 1 4 3 -2 6 -13 5 -11 0 -14 -3 -6 -6z"/>
<path d="M3825 9680 c-3 -5 1 -10 10 -10 9 0 13 5 10 10 -3 6 -8 10 -10 10 -2
0 -7 -4 -10 -10z"/>
<path d="M3215 9650 c3 -5 8 -10 11 -10 2 0 4 5 4 10 0 6 -5 10 -11 10 -5 0
-7 -4 -4 -10z"/>
<path d="M3187 9634 c-7 -8 4 -44 14 -44 12 0 12 37 0 44 -4 3 -11 3 -14 0z"/>
<path d="M7909 9256 c8 -9 8 -16 2 -20 -11 -7 -181 0 -188 8 -3 2 -12 2 -20
-1 -8 -3 -18 -1 -22 6 -6 9 -15 9 -37 1 -16 -7 -30 -7 -32 -2 -4 14 -94 -4
-154 -31 -29 -13 -60 -27 -69 -30 -21 -7 -84 -85 -94 -116 -10 -31 -99 -120
-139 -136 -78 -33 -166 -147 -166 -216 0 -37 -28 -112 -46 -122 -8 -4 -12 -12
-9 -17 3 -5 -4 -24 -15 -42 -11 -18 -20 -43 -20 -54 0 -12 -9 -33 -20 -46 -11
-14 -25 -47 -31 -74 -6 -27 -18 -66 -27 -86 -8 -20 -12 -46 -9 -57 7 -29 -12
-122 -33 -151 -22 -30 -27 -57 -16 -88 5 -14 3 -28 -4 -37 -16 -19 -20 -90 -9
-149 8 -46 19 -74 47 -121 12 -19 33 -75 33 -85 0 -3 9 -18 19 -35 10 -16 21
-57 25 -90 5 -37 14 -67 25 -77 11 -10 18 -31 18 -52 0 -21 10 -49 24 -68 21
-30 23 -42 20 -122 -2 -49 -7 -110 -12 -135 -8 -43 -5 -71 3 -40 26 92 51 160
62 169 19 15 29 -6 55 -113 19 -82 20 -90 5 -121 -14 -30 -20 -33 -43 -27 -15
4 -35 5 -45 3 -16 -3 -18 -10 -12 -40 4 -20 14 -42 23 -50 12 -9 13 -15 5 -18
-17 -7 19 -87 64 -142 27 -33 38 -40 44 -30 7 10 9 9 9 -4 0 -9 9 -19 20 -23
12 -4 24 -22 31 -46 7 -21 17 -39 22 -39 5 0 7 -12 4 -27 -2 -16 -1 -37 3 -48
5 -12 9 -14 9 -6 1 12 4 12 13 3 10 -10 10 -15 1 -20 -7 -5 -9 -13 -4 -21 5
-7 14 -10 21 -6 8 5 9 -3 4 -30 -5 -28 -4 -36 5 -30 8 4 12 2 10 -6 -4 -30 2
-39 24 -40 12 0 16 -3 10 -6 -7 -2 -13 -18 -13 -33 0 -16 6 -33 13 -37 19 -12
47 -81 41 -98 -4 -9 0 -23 9 -33 20 -24 35 -122 42 -283 l6 -136 -40 -12 c-48
-14 -95 -51 -125 -100 -23 -36 -111 -90 -124 -76 -4 4 -1 10 6 12 12 5 7 23
-7 23 -4 0 -17 -9 -29 -20 -12 -12 -22 -17 -22 -13 0 13 -51 14 -66 2 -11 -9
-14 -8 -14 2 0 9 -3 10 -8 4 -7 -11 -43 -23 -137 -46 -27 -7 -61 -19 -73 -27
-20 -13 -25 -13 -33 -1 -7 11 -9 11 -9 -3 0 -11 -11 -20 -27 -24 -16 -4 -33
-11 -40 -16 -7 -5 -18 -6 -25 -2 -7 4 -10 4 -6 -1 11 -11 -22 -34 -49 -35 -13
0 -23 -4 -23 -10 0 -5 -9 -10 -20 -10 -10 0 -23 -6 -27 -13 -9 -16 -69 -47
-90 -47 -7 0 -13 -6 -13 -14 0 -22 -19 -30 -35 -16 -16 13 -19 6 -16 -32 2
-14 -6 -18 -36 -19 -21 -1 -29 -3 -18 -6 11 -3 24 -9 29 -14 15 -14 42 -11 56
6 14 17 35 20 24 4 -4 -7 -39 -27 -78 -45 -79 -38 -101 -54 -134 -101 -13 -18
-28 -33 -34 -33 -5 0 -22 -9 -38 -20 -24 -17 -159 -89 -390 -206 -36 -19 -69
-34 -74 -34 -16 0 43 41 107 74 90 47 96 51 156 81 30 15 61 33 68 41 8 8 19
12 24 9 5 -4 9 1 9 9 0 9 9 16 20 16 11 0 20 4 20 9 0 18 -197 -9 -247 -34
-15 -8 -44 -12 -62 -10 -19 3 -41 -1 -49 -8 -8 -6 -17 -11 -19 -9 -7 7 -69
-11 -108 -30 -26 -14 -40 -17 -43 -9 -5 15 -35 14 -69 -4 -30 -16 -82 -37 -98
-40 -5 0 -22 -6 -36 -12 -15 -7 -43 -10 -63 -8 -20 2 -36 -1 -36 -7 0 -5 -9
-6 -20 -3 -11 3 -20 2 -20 -3 0 -19 -124 -45 -212 -45 -20 0 -28 -5 -28 -17 0
-19 -52 -35 -102 -31 -14 1 -29 -3 -33 -9 -4 -6 -34 -10 -73 -9 -81 1 -113 -6
-129 -27 -8 -11 -16 -13 -30 -6 -17 9 -72 15 -115 13 -11 -1 -18 -10 -19 -23
-1 -22 -1 -22 -8 2 l-7 25 -8 -22 c-6 -20 -14 -23 -58 -23 -36 0 -54 5 -63 17
-7 9 -30 22 -51 29 -29 9 -33 12 -16 13 13 1 31 8 40 17 15 15 14 16 -6 10
-19 -6 -22 -4 -22 19 0 33 -19 40 -81 28 -27 -6 -52 -6 -55 -2 -3 5 -14 9 -25
9 -10 0 -19 5 -19 10 0 6 -16 10 -35 10 -19 0 -35 5 -35 11 0 7 -10 9 -25 5
-20 -5 -27 -2 -35 16 -5 13 -9 16 -9 8 -1 -10 -11 -15 -31 -15 -18 0 -29 4
-26 11 3 7 -19 13 -62 17 -44 3 -70 10 -78 21 -19 27 -37 20 -29 -11 7 -28 6
-28 -13 -8 -13 14 -16 22 -8 27 6 5 2 8 -11 8 -12 0 -25 5 -29 11 -3 6 -15 8
-26 6 -11 -3 -27 2 -39 14 -13 13 -33 19 -64 19 -34 0 -48 5 -57 20 -16 25
-28 26 -28 1 0 -18 -2 -19 -30 -5 -17 9 -30 22 -30 29 0 18 -20 24 -49 13 -19
-7 -28 -3 -47 19 -13 16 -24 31 -24 36 0 4 -9 7 -20 7 -12 0 -20 7 -20 16 0 8
-6 22 -14 30 -8 8 -22 14 -30 14 -9 0 -16 5 -16 10 0 6 -7 10 -16 8 -21 -4
-65 53 -46 59 18 7 15 19 -13 47 -25 25 -32 46 -16 46 5 0 11 -6 14 -12 3 -10
10 -10 30 1 31 17 36 35 7 26 -16 -5 -20 -2 -20 19 0 20 -5 26 -22 26 -19 0
-20 2 -8 10 10 6 11 10 3 10 -7 0 -13 7 -13 15 0 8 9 15 20 15 11 0 20 5 20
10 0 6 -4 10 -10 10 -5 0 -10 11 -10 25 0 14 -4 25 -10 25 -5 0 -10 -10 -10
-22 -1 -19 -4 -17 -17 12 -9 19 -15 38 -15 42 1 4 -4 5 -12 2 -7 -3 -20 1 -27
9 -8 7 -28 17 -44 21 -26 7 -27 9 -11 15 36 14 -5 25 -81 23 -39 -1 -84 3
-100 10 -15 6 -77 12 -138 13 -109 1 -264 15 -400 37 -38 6 -97 14 -130 18
-78 10 -172 33 -264 65 -66 22 -90 25 -215 24 -78 0 -206 -4 -286 -8 -139 -8
-148 -10 -221 -45 -57 -28 -96 -39 -161 -46 -48 -6 -107 -19 -132 -30 -59 -25
-223 -70 -257 -70 -21 0 -30 8 -45 43 -25 58 -70 96 -114 97 -68 1 -107 18
-119 52 -15 42 -15 42 16 72 30 30 25 45 -10 29 -13 -6 -30 -7 -38 -3 -8 4
-31 11 -52 14 -29 6 -43 15 -59 42 -12 21 -30 36 -47 40 -14 3 -34 9 -43 15
-17 9 -18 -134 -18 -2936 l0 -2945 8000 0 8000 0 0 3080 c0 2952 -1 3080 -18
3080 -62 0 -260 -34 -327 -56 -62 -20 -106 -27 -195 -30 -63 -3 -138 -11 -167
-19 -28 -8 -78 -15 -110 -15 -33 0 -84 -8 -114 -17 -63 -20 -230 -23 -619 -10
-252 9 -646 34 -660 42 -4 2 -97 5 -206 5 -192 1 -254 -5 -404 -40 -25 -6
-167 -13 -317 -15 -273 -5 -351 -12 -453 -41 -35 -10 -143 -20 -292 -28 -130
-7 -243 -17 -250 -23 -7 -5 -55 -27 -106 -48 l-92 -38 -263 7 c-265 6 -334 15
-497 61 -62 18 -167 14 -310 -12 -47 -9 -119 -19 -160 -23 -44 -4 -91 -15
-115 -27 -22 -12 -72 -24 -110 -28 -39 -4 -92 -13 -119 -21 -33 -9 -102 -14
-207 -14 -86 0 -221 -7 -300 -16 -144 -16 -179 -15 -296 5 -44 8 -76 8 -109 1
-85 -19 -112 -16 -147 17 -18 16 -49 40 -69 52 -44 26 -52 49 -67 191 -29 275
-23 393 21 424 14 10 17 20 12 41 -4 15 -3 30 2 34 24 17 38 63 40 134 2 49 9
85 18 99 10 14 13 31 9 47 -5 22 -4 24 9 14 8 -7 18 -10 21 -7 7 7 -23 64 -34
64 -17 0 -17 46 0 65 10 11 22 30 26 43 6 22 8 22 31 7 23 -15 24 -15 24 10 0
21 -5 25 -27 25 -54 0 -55 4 -50 188 1 40 7 76 12 80 6 4 17 26 24 50 9 32 16
42 27 38 9 -3 19 -6 24 -6 5 0 16 -25 24 -54 16 -55 41 -90 32 -44 -3 12 -12
58 -21 100 -19 90 -15 111 26 135 33 20 36 29 12 55 -17 19 -18 22 -28 298 -3
80 -8 153 -11 163 -3 9 -2 17 3 17 5 0 9 27 10 60 0 33 6 67 13 75 10 12 10
18 0 30 -6 8 -9 19 -5 25 4 6 -4 32 -17 58 -13 28 -23 68 -24 99 -2 35 -9 62
-23 82 -12 16 -21 32 -21 35 0 4 -8 19 -17 33 -20 30 -27 89 -12 98 16 11 10
22 -20 35 -35 14 -110 94 -112 118 -1 9 -1 23 0 30 6 39 -107 132 -174 145
-20 4 -77 29 -105 47 -8 5 -54 27 -102 50 -47 23 -89 44 -92 47 -5 6 -68 13
-123 14 -26 1 -35 7 -48 35 -9 20 -23 34 -34 34 -10 0 -26 9 -36 20 -9 10 -20
19 -24 18 -13 -3 -90 23 -96 32 -8 13 -45 13 -45 0 0 -5 8 -13 17 -19 13 -7 8
-9 -20 -6 -21 2 -49 11 -62 19 -32 21 -62 22 -46 2z m88 -49 c4 -7 0 -8 -11
-4 -10 4 -24 7 -32 7 -8 0 -14 4 -14 9 0 11 49 1 57 -12z m3 -67 c0 -5 -4 -10
-9 -10 -6 0 -13 5 -16 10 -3 6 1 10 9 10 9 0 16 -4 16 -10z m590 -130 c0 -5
-4 -10 -10 -10 -5 0 -10 5 -10 10 0 6 5 10 10 10 6 0 10 -4 10 -10z m-678
-640 c5 0 8 -7 8 -15 0 -8 -4 -15 -9 -15 -15 0 -41 42 -41 65 0 17 3 16 18 -7
9 -16 20 -28 24 -28z m-21 -52 c15 -6 26 -4 32 4 6 10 8 9 4 -3 -7 -20 11 -39
35 -39 21 0 24 -23 4 -39 -14 -12 -28 -51 -18 -51 3 0 16 9 28 21 21 20 23 20
58 4 20 -10 36 -25 37 -34 0 -9 3 -11 6 -4 3 10 9 10 24 0 22 -14 26 -32 4
-23 -18 6 -20 -5 -4 -21 7 -7 21 -8 41 -3 23 7 41 4 81 -16 38 -18 44 -23 22
-19 -22 4 -26 3 -15 -5 8 -5 23 -10 33 -10 9 0 38 -21 65 -46 44 -42 100 -80
107 -72 8 7 -23 36 -62 58 -24 13 -43 29 -43 36 0 7 -8 18 -17 23 -17 10 -17
10 -1 11 9 0 20 -5 23 -10 4 -6 11 -8 16 -5 5 4 9 1 9 -4 0 -6 6 -11 14 -11 8
0 22 -10 30 -22 9 -12 16 -17 16 -10 0 7 5 10 10 7 6 -3 10 -13 10 -21 0 -9
10 -24 23 -35 19 -16 20 -20 7 -30 -13 -9 -13 -10 0 -6 8 2 22 -5 31 -16 9
-12 21 -17 28 -13 8 5 6 15 -9 33 -29 38 -24 53 6 19 16 -17 28 -43 30 -65 7
-71 19 -101 44 -114 14 -7 25 -20 25 -29 0 -9 4 -20 9 -25 5 -5 6 -2 1 7 -5
10 0 8 13 -4 12 -11 20 -21 18 -23 -9 -9 -66 28 -66 42 0 8 -6 15 -14 15 -7 0
-34 11 -59 25 -29 16 -48 22 -52 15 -3 -5 -16 -10 -29 -10 -12 0 -26 -3 -30
-7 -3 -4 -17 -8 -29 -10 -12 -2 -33 -7 -47 -13 -14 -5 -56 -16 -94 -25 -37 -8
-80 -24 -94 -35 -23 -19 -56 -69 -46 -71 2 -1 8 -2 13 -3 5 0 13 -4 17 -8 4
-4 13 -3 21 3 10 9 13 5 13 -20 0 -29 2 -30 25 -21 14 5 29 9 33 9 31 -5 83 4
95 16 15 15 129 31 182 25 17 -2 45 -3 63 -3 17 0 32 -5 32 -9 0 -5 9 -6 20
-3 11 4 20 2 20 -4 0 -6 9 -11 20 -11 12 0 25 -10 32 -25 6 -13 19 -27 30 -30
10 -4 18 -13 18 -21 0 -8 6 -14 13 -14 17 0 50 -36 54 -58 5 -33 5 -97 0 -117
-3 -11 -6 -35 -6 -53 -1 -19 -5 -31 -11 -27 -16 10 -12 -15 9 -59 18 -39 34
-146 22 -146 -3 0 -5 -52 -3 -115 2 -70 -1 -115 -6 -115 -10 0 -9 -6 8 -85 19
-87 20 -95 10 -95 -5 0 -10 11 -10 24 0 13 -6 29 -14 35 -11 9 -15 6 -19 -15
-2 -15 0 -42 5 -60 10 -39 4 -56 -17 -47 -12 4 -15 -3 -15 -31 0 -24 -5 -36
-14 -36 -8 0 -16 -6 -19 -12 -3 -10 -8 -10 -23 2 -15 11 -16 11 -6 0 18 -20
16 -51 -3 -44 -13 5 -14 2 -6 -18 7 -20 6 -24 -10 -24 -10 0 -18 5 -18 11 3
22 -1 35 -11 35 -5 0 -10 -16 -10 -36 0 -44 -11 -38 -55 30 -30 47 -33 60 -34
126 -1 80 -16 140 -35 140 -6 0 -29 18 -51 40 -34 35 -98 66 -150 74 -8 1 -18
5 -21 9 -4 4 -15 7 -25 7 -24 0 -31 26 -12 42 24 20 42 70 36 100 -5 28 -47
76 -91 106 -30 20 -44 55 -33 84 5 13 5 33 0 46 -7 17 -5 22 7 22 13 0 14 3 5
14 -15 18 5 34 22 17 6 -6 18 -11 26 -11 8 0 -7 16 -33 37 -25 20 -45 41 -43
47 2 6 31 11 66 12 34 0 57 -2 51 -6 -7 -5 -6 -11 5 -20 13 -11 20 -10 45 9
24 17 30 19 30 6 0 -8 5 -15 10 -15 6 0 10 7 10 16 0 11 5 14 16 10 9 -3 22
-6 31 -6 9 0 13 -6 10 -14 -4 -9 3 -16 19 -19 29 -5 38 5 29 36 -5 19 -4 20 7
7 22 -25 78 -61 78 -50 0 5 11 10 25 10 14 0 25 5 25 11 0 6 6 9 14 6 9 -4 20
7 31 30 17 35 17 38 -4 80 -11 23 -25 43 -31 43 -5 0 -10 8 -10 18 0 14 -2 15
-10 2 -5 -8 -10 -10 -10 -3 0 6 -9 9 -21 6 -12 -4 -25 0 -29 8 -13 19 -158 19
-170 -1 -5 -8 -6 -18 -4 -22 3 -4 0 -8 -6 -8 -7 0 -9 7 -6 16 6 15 0 16 -46
10 -29 -4 -68 -16 -86 -27 -41 -23 -42 -23 -42 -1 0 28 -8 31 -43 14 -43 -20
-65 -44 -72 -79 -4 -15 -11 -40 -17 -56 -7 -19 -7 -31 1 -41 6 -7 13 -37 16
-67 10 -106 17 -149 26 -149 5 0 9 -15 9 -33 0 -64 50 -98 90 -62 23 21 66 5
82 -29 21 -47 -25 -90 -110 -101 -19 -2 -42 -10 -51 -18 -9 -7 -29 -18 -44
-25 -15 -7 -31 -20 -35 -29 -8 -20 -52 -26 -52 -7 0 7 -6 14 -12 17 -21 7 -1
20 32 21 16 1 30 5 30 9 0 5 4 6 9 3 5 -3 19 2 32 12 22 17 152 69 174 70 5 0
11 6 14 13 2 8 -6 10 -25 7 -63 -11 -131 -32 -179 -54 -71 -34 -90 -31 -139
19 -47 49 -48 70 -6 140 21 35 22 42 10 80 -6 22 -17 52 -23 66 -6 14 -11 58
-11 97 -1 108 -44 159 -136 163 l-34 2 20 -23 c12 -13 25 -30 29 -38 7 -12 6
-13 -7 -3 -8 7 -19 9 -23 5 -5 -4 -6 -2 -3 3 8 12 -200 9 -257 -5 -22 -5 -51
-8 -65 -7 -16 1 -24 -3 -22 -11 1 -8 -5 -11 -20 -7 -13 3 -27 2 -33 -2 -18
-14 -42 -67 -48 -105 -5 -30 -2 -38 13 -43 24 -8 32 -42 11 -51 -29 -12 -71
-14 -71 -3 0 6 -9 22 -19 35 -21 26 -21 51 -2 97 6 16 11 35 11 43 0 8 4 14 8
14 5 0 19 9 32 20 13 11 19 20 15 20 -4 0 9 11 29 25 20 14 43 25 51 25 7 0
15 5 17 10 8 25 300 41 315 17 3 -5 9 -3 14 4 4 8 16 14 26 14 9 0 24 12 32
26 13 24 13 28 -10 53 -19 20 -47 32 -110 47 -46 11 -96 18 -111 15 -21 -4
-26 -2 -21 9 6 17 2 18 -49 6 -27 -6 -42 -5 -55 5 -24 18 -36 18 -30 0 4 -11
1 -13 -11 -9 -9 3 -14 3 -10 -2 4 -4 -4 -14 -19 -22 -21 -11 -28 -11 -35 -1
-6 10 -10 10 -18 -2 -7 -11 -10 -7 -10 19 0 24 -4 32 -14 28 -21 -8 -7 34 18
54 l21 17 -28 26 c-26 24 -27 28 -13 42 9 8 16 21 16 28 0 7 9 21 20 31 19 18
20 17 22 -6 0 -13 4 -2 7 25 4 29 12 51 20 54 25 8 7 -88 -20 -109 -20 -15
-22 -20 -11 -31 10 -10 14 -9 18 10 6 20 16 26 37 23 4 0 7 14 7 33 0 42 9 68
21 60 5 -3 9 -1 9 5 0 5 -4 11 -9 13 -13 4 -22 86 -11 93 7 4 6 13 0 25 -5 10
-7 27 -4 37 12 39 28 63 40 63 7 0 15 8 17 18 3 12 5 11 6 -6 0 -13 4 -22 9
-20 4 3 22 11 40 19 19 8 30 19 28 26 -4 8 3 13 19 13 13 0 30 9 38 21 11 15
16 17 20 7 4 -11 8 -11 23 0 11 7 27 15 37 18 9 4 17 13 17 20 0 8 10 18 23
23 13 5 29 16 35 24 15 18 59 13 83 -9 15 -13 16 -12 12 13 l-5 28 21 -30 c11
-16 30 -33 42 -37z m94 -3 l18 -30 -21 19 c-12 11 -22 26 -22 34 0 17 -1 18
25 -23z m260 -56 c20 -28 34 -53 31 -56 -6 -6 -76 35 -77 45 -4 37 -3 62 2 62
4 0 24 -23 44 -51z m75 -36 c0 -20 -6 -16 -42 29 l-33 43 37 -30 c21 -17 38
-36 38 -42z m15 -53 c3 -5 1 -10 -4 -10 -6 0 -11 5 -11 10 0 6 2 10 4 10 3 0
8 -4 11 -10z m265 -302 c0 -10 4 -17 10 -13 5 3 17 -9 26 -27 9 -18 26 -44 38
-57 l21 -25 -34 24 c-18 13 -36 32 -39 42 -2 11 -10 17 -17 14 -8 -3 -16 6
-20 22 -3 15 -9 36 -12 47 -5 17 -4 18 11 6 9 -7 16 -22 16 -33z m-1322 -101
c2 -10 -3 -17 -12 -17 -9 0 -14 8 -13 20 2 24 21 21 25 -3z m1833 -274 c-10
-17 -10 -16 -11 3 0 23 13 41 18 25 2 -6 -1 -18 -7 -28z m-908 -47 c17 5 12
-3 -17 -30 -21 -20 -42 -36 -47 -36 -30 0 -18 73 14 87 18 9 23 7 25 -9 3 -14
9 -17 25 -12z m307 -6 c0 -7 -24 -20 -36 -20 -2 0 -4 9 -4 19 0 14 5 18 20 14
11 -3 20 -9 20 -13z m-189 -18 c7 -19 5 -22 -14 -22 -12 0 -29 5 -37 10 -13 9
-12 12 5 25 24 19 36 15 46 -13z m-738 -9 c-7 -2 -21 -2 -30 0 -10 3 -4 5 12
5 17 0 24 -2 18 -5z m209 -38 c4 -5 5 -12 2 -16 -5 -9 -64 13 -64 24 0 11 53
4 62 -8z m-116 -15 c29 -11 24 -23 -13 -35 -20 -5 -23 -3 -23 19 0 30 0 29 36
16z m-192 -35 c4 -10 -1 -15 -14 -15 -20 0 -26 11 -13 23 10 11 20 8 27 -8z
m306 -20 c0 -9 -21 -38 -47 -66 -47 -50 -52 -70 -13 -49 12 6 23 10 24 8 21
-29 46 -96 42 -113 -3 -12 -22 -43 -42 -69 -22 -28 -38 -63 -41 -86 -5 -34 -1
-43 26 -70 l31 -32 -49 -46 c-27 -26 -70 -62 -96 -80 -25 -18 -50 -45 -56 -60
-5 -15 -22 -38 -37 -51 -17 -14 -20 -21 -9 -17 21 7 23 -10 2 -18 -8 -3 -15
-14 -15 -25 0 -11 -5 -23 -11 -26 -7 -5 -4 -12 8 -20 28 -20 25 -106 -5 -121
-12 -6 -19 -14 -15 -17 9 -10 -10 -8 -26 2 -7 5 -11 13 -8 18 4 6 1 24 -6 42
-9 24 -16 30 -30 25 -16 -5 -18 -2 -12 17 6 18 4 21 -9 16 -9 -4 -16 -1 -16 5
0 7 -5 6 -15 -2 -18 -15 -20 1 -2 19 10 11 7 12 -13 6 -22 -7 -24 -6 -11 9 16
20 21 76 6 75 -32 -4 -37 2 -32 31 7 32 0 63 -12 56 -4 -3 -12 13 -18 34 -5
22 -6 37 -2 34 4 -2 8 14 7 36 0 22 -5 40 -10 40 -5 0 -6 5 -3 10 3 6 1 10 -5
10 -7 0 -10 7 -6 15 3 8 1 15 -4 15 -6 0 -10 14 -10 30 0 17 5 30 11 30 8 0 8
4 -1 15 -23 27 -16 106 14 149 14 21 26 43 26 47 0 5 5 9 10 9 6 0 10 -7 10
-16 0 -25 23 -11 42 25 18 37 70 74 106 75 12 1 33 14 46 29 20 24 25 25 36
12 7 -8 18 -15 24 -15 6 0 4 4 -4 10 -8 5 -11 12 -7 16 3 4 14 1 24 -7 9 -8
14 -9 10 -2 -4 6 -3 14 3 18 5 3 10 -1 10 -9 0 -20 24 -21 40 -2 6 8 18 12 26
9 8 -3 22 1 32 9 33 30 82 37 82 13z m80 -330 c31 -19 -4 -49 -45 -39 -13 3
-33 0 -45 -6 -12 -6 -28 -9 -36 -6 -13 5 -13 10 1 36 14 28 18 29 65 25 28 -2
55 -7 60 -10z m-31 -88 c21 -26 -21 -37 -61 -16 -17 9 -18 13 -7 20 21 13 55
11 68 -4z m84 -4 c20 -10 27 -18 19 -21 -8 -2 -19 1 -25 7 -6 6 -21 11 -34 11
-13 0 -23 5 -23 10 0 15 27 12 63 -7z m-885 -63 c3 -21 2 -22 -12 -11 -19 16
-21 44 -3 39 6 -3 14 -15 15 -28z m1002 -42 c0 -16 -3 -19 -11 -11 -6 6 -8 16
-5 22 11 17 16 13 16 -11z m-950 -47 c-5 -11 -7 -27 -4 -35 4 -12 0 -16 -15
-16 -24 0 -29 28 -6 36 9 4 15 19 15 38 1 26 2 28 11 14 7 -12 6 -24 -1 -37z
m920 39 c0 -5 -5 -10 -11 -10 -5 0 -7 5 -4 10 3 6 8 10 11 10 2 0 4 -4 4 -10z
m65 -62 c4 -3 -3 -9 -14 -13 -25 -8 -27 -18 -6 -35 12 -10 19 -10 27 -2 15 15
42 16 33 2 -3 -6 1 -7 9 -4 11 4 16 0 16 -11 0 -15 -7 -17 -39 -12 -25 3 -44
0 -52 -8 -12 -12 -17 -11 -34 1 -16 12 -17 18 -8 33 15 23 8 31 -28 31 -31 0
-59 9 -59 19 0 8 146 8 155 -1z m-105 -78 c0 -5 -5 -10 -11 -10 -5 0 -7 5 -4
10 3 6 8 10 11 10 2 0 4 -4 4 -10z m445 -49 c-7 -12 31 -25 45 -16 5 3 10 1
10 -4 0 -6 6 -11 13 -11 18 0 70 -97 56 -106 -6 -3 -8 -13 -5 -21 3 -8 1 -11
-4 -8 -17 10 -50 -14 -43 -32 4 -11 3 -14 -5 -9 -11 7 -18 -25 -13 -61 2 -16
-4 -16 -31 -2 -25 14 -33 6 -18 -20 10 -20 8 -21 -44 -21 -58 0 -66 -7 -66
-58 0 -20 -3 -23 -9 -13 -5 8 -7 20 -4 27 3 8 -14 24 -43 41 -67 39 -109 81
-111 110 -1 19 2 23 13 19 9 -3 34 -9 57 -12 36 -4 39 -4 22 7 -11 7 -22 15
-25 18 -14 17 -63 42 -75 38 -7 -3 -17 -1 -23 5 -18 18 -110 11 -153 -11 -21
-11 -45 -18 -52 -15 -19 7 -35 -15 -39 -56 -3 -30 0 -35 19 -35 32 0 38 -11
20 -39 -15 -22 -15 -25 -1 -28 11 -2 7 -11 -16 -36 -17 -19 -37 -32 -44 -29
-8 3 -22 -3 -32 -14 -21 -24 -31 -24 -37 -1 -3 13 -6 11 -15 -10 -17 -42 -41
-31 -33 15 1 4 -11 4 -26 1 -28 -7 -28 -7 -9 15 17 18 17 21 3 21 -10 0 -17 4
-17 9 0 5 -9 11 -20 14 -11 3 -18 2 -15 -3 3 -4 -6 -15 -20 -24 -25 -17 -34
-9 -14 11 18 18 3 42 -23 37 -13 -2 -17 -2 -10 2 6 3 12 15 12 26 0 17 -3 18
-15 8 -20 -16 -20 4 -1 41 12 24 12 26 -5 22 -11 -3 -19 -1 -19 5 0 19 67 107
93 122 31 17 44 8 49 -32 5 -32 12 -41 38 -45 21 -3 27 11 10 22 -17 10 -2 24
20 18 11 -3 26 -1 33 5 6 5 43 15 81 21 79 14 94 20 75 32 -11 7 -11 11 -1 21
16 16 98 25 191 19 l23 -1 -23 -20 c-13 -11 -17 -18 -9 -15 8 2 63 9 122 14
84 7 114 14 134 30 29 23 39 26 29 12z m395 -55 c0 -3 -4 -8 -10 -11 -5 -3
-10 -1 -10 4 0 6 5 11 10 11 6 0 10 -2 10 -4z m-1430 -102 c0 -8 -7 -14 -15
-14 -15 0 -21 21 -9 33 10 9 24 -2 24 -19z m135 -114 c-3 -5 -11 -10 -16 -10
-6 0 -7 5 -4 10 3 6 11 10 16 10 6 0 7 -4 4 -10z m890 -111 c11 -17 -1 -21
-15 -4 -8 9 -8 15 -2 15 6 0 14 -5 17 -11z m-515 -11 c0 -6 -3 -8 -7 -5 -3 4
-12 2 -20 -5 -11 -8 -12 -7 -7 6 7 18 34 22 34 4z m821 -286 c-16 -30 -14 -35
14 -30 29 6 31 2 10 -18 -16 -17 -20 -44 -6 -44 5 0 11 9 14 20 3 11 12 20 21
20 14 0 16 -8 11 -54 -5 -48 -4 -54 15 -59 23 -6 27 -45 9 -78 -8 -15 -7 -24
2 -35 7 -8 14 -27 15 -41 2 -14 9 -30 16 -34 10 -7 10 -9 1 -9 -7 0 -13 -7
-13 -15 0 -8 9 -15 20 -15 12 0 20 -7 20 -16 0 -9 9 -18 20 -21 11 -3 20 -9
20 -14 0 -18 56 -9 73 12 10 11 21 18 25 14 3 -3 1 -10 -7 -14 -7 -5 -12 -10
-11 -12 3 -8 -12 -67 -47 -179 -38 -122 -61 -176 -70 -166 -4 3 -13 0 -21 -7
-10 -8 -63 -13 -163 -14 -145 -2 -150 -3 -209 -34 -34 -18 -58 -35 -53 -40 5
-5 37 -11 71 -14 70 -6 112 -19 112 -36 0 -8 13 -10 40 -6 27 3 38 2 33 -5 -4
-8 8 -9 38 -3 108 18 102 20 94 -28 -4 -23 -15 -62 -25 -87 -10 -25 -42 -104
-70 -177 -40 -99 -57 -133 -73 -137 -17 -4 -18 -8 -8 -20 10 -12 -9 -68 -101
-300 -130 -328 -106 -299 -281 -343 -194 -48 -408 -26 -602 62 -41 19 -75 39
-75 45 0 6 -4 9 -8 6 -16 -10 -72 34 -86 67 -9 23 -24 38 -44 45 -17 6 -32 9
-34 6 -2 -2 -16 31 -31 73 -18 53 -23 81 -17 92 6 10 9 12 10 3 0 -7 9 -22 20
-34 l20 -22 0 22 c0 13 -7 25 -15 28 -19 8 -19 33 1 72 9 19 23 32 35 32 10 0
19 7 19 14 0 13 -5 13 -37 0 -21 -8 -48 -26 -61 -40 l-22 -25 -9 23 c-5 13
-12 41 -15 64 -7 37 -5 43 18 58 42 27 29 56 -24 56 -20 0 -25 10 -36 73 l-7
39 26 -26 c29 -29 58 -33 76 -13 13 16 5 28 -15 20 -8 -3 -14 0 -14 6 0 6 -7
11 -15 11 -12 0 -13 5 -7 18 10 18 6 70 -7 87 -17 21 -22 68 -9 76 18 12 68
11 68 -1 0 -5 11 -10 24 -10 14 0 28 5 31 10 3 6 24 10 46 10 25 0 42 5 45 14
3 8 12 17 20 20 9 4 12 2 8 -5 -5 -8 5 -9 32 -4 22 3 56 7 76 7 23 0 35 4 32
10 -8 13 14 28 42 28 12 0 32 11 45 25 13 13 34 25 46 25 61 0 70 30 17 55
-41 19 -87 17 -179 -9 -48 -14 -81 -16 -170 -11 -144 9 -190 20 -204 51 -6 13
-16 24 -22 24 -17 0 -8 315 10 332 11 10 14 10 18 0 3 -6 8 -10 13 -7 4 3 13
-18 20 -45 11 -46 39 -79 61 -72 4 1 10 -10 13 -23 8 -30 48 -34 71 -7 8 9 24
27 35 40 11 12 20 28 20 36 0 7 9 25 21 40 19 24 18 31 -3 27 -16 -2 -8 28 10
38 16 10 16 10 -2 11 -13 0 -16 4 -11 18 11 25 8 54 -7 63 -8 6 -9 9 -2 9 19
0 23 60 6 77 -13 12 -13 16 -1 23 8 6 16 4 21 -3 4 -6 6 4 5 23 -1 19 -7 42
-11 50 -8 12 -6 12 10 -1 10 -9 25 -14 31 -12 7 3 20 -3 29 -11 14 -15 14 -17
-1 -22 -13 -5 -11 -9 11 -21 24 -12 29 -12 36 2 5 8 14 15 19 15 13 0 48 -41
49 -57 0 -6 10 -15 23 -19 12 -4 28 -16 36 -26 7 -11 20 -17 28 -14 8 3 42 -8
75 -24 33 -17 68 -30 78 -30 11 0 22 -4 25 -10 3 -5 22 -10 42 -10 20 0 48 -9
65 -21 22 -16 32 -19 41 -10 9 9 6 13 -11 17 -12 4 -22 13 -22 20 0 22 -3 28
-22 48 -22 24 -34 15 -18 -13 6 -12 7 -21 3 -22 -21 -3 -59 4 -67 12 -6 5 -18
9 -28 9 -10 0 -18 5 -18 10 0 6 -11 10 -25 10 -14 0 -25 5 -25 10 0 6 9 10 19
10 11 0 23 -4 26 -10 3 -5 18 -10 33 -10 l27 0 -30 25 c-16 13 -37 25 -45 25
-10 1 -9 4 5 10 11 5 14 9 7 9 -9 1 -11 8 -7 20 3 11 0 23 -6 27 -9 5 -10 2
-6 -9 7 -19 -1 -21 -23 -7 -11 7 -12 12 -4 20 8 8 27 9 65 2 41 -8 56 -7 64 3
5 7 31 15 58 19 39 5 51 2 67 -14 20 -20 20 -20 20 3 0 26 32 58 49 48 8 -5 3
-16 -14 -35 -34 -36 -32 -39 10 -15 26 16 35 18 36 7 0 -7 5 -3 11 10 14 28
35 29 43 1 4 -12 12 -18 21 -15 45 19 50 19 30 4 -12 -10 -15 -17 -8 -22 6 -3
13 -2 17 4 10 16 23 12 21 -6 -1 -19 30 -28 40 -12 4 6 -1 17 -11 25 -11 7
-14 13 -8 13 7 0 14 -4 17 -9 3 -5 15 -7 26 -4 15 4 19 2 14 -10 -3 -8 -1 -18
5 -22 6 -3 11 -2 11 3 0 15 34 49 58 56 12 4 22 11 22 17 0 5 8 18 18 29 9 12
17 31 17 43 0 18 5 22 28 20 24 -2 27 1 22 18 -4 13 -2 19 8 19 8 0 14 6 14
13 -2 37 18 99 36 112 26 18 32 13 18 -13z m-1148 -192 c3 -11 1 -20 -4 -20
-5 0 -9 5 -9 11 0 5 -4 7 -10 4 -5 -3 -10 1 -10 9 0 23 27 20 33 -4z m72 -36
c11 -12 13 -20 6 -27 -8 -8 -15 -5 -26 9 -26 35 -11 49 20 18z m795 -4 c0 -5
-9 -10 -20 -10 -11 0 -20 5 -20 10 0 6 9 10 20 10 11 0 20 -4 20 -10z m-424
-39 c-4 -6 -13 -11 -19 -10 -9 0 -9 2 0 5 7 3 9 13 6 22 -5 13 -3 14 7 5 7 -6
9 -16 6 -22z m464 9 c0 -5 -5 -10 -11 -10 -5 0 -7 5 -4 10 3 6 8 10 11 10 2 0
4 -4 4 -10z m642 -39 c15 8 24 7 36 -4 22 -18 64 -34 127 -47 27 -6 52 -16 56
-22 4 -6 20 -10 35 -10 16 0 40 -9 53 -19 13 -11 31 -19 39 -19 9 0 26 -10 39
-22 13 -12 23 -16 23 -9 0 7 5 9 11 5 14 -8 7 -111 -9 -140 -6 -10 -18 -48
-27 -84 -37 -147 -143 -408 -223 -550 -20 -36 -43 -77 -52 -92 -40 -73 -152
-220 -213 -280 -98 -97 -181 -158 -407 -293 -95 -56 -140 -78 -140 -67 0 7 34
102 49 137 5 11 39 97 76 190 37 94 96 235 130 315 34 80 80 186 101 235 21
50 45 98 54 107 31 33 160 65 160 39 0 -13 25 -8 44 8 9 7 23 11 31 7 8 -3 15
0 15 7 0 16 38 40 50 32 6 -4 14 3 18 15 4 12 12 20 17 18 6 -2 11 6 13 16 2
11 10 26 18 34 20 20 18 62 -3 64 -62 5 -94 2 -141 -15 -40 -13 -57 -15 -67
-7 -9 8 -15 8 -20 1 -3 -6 -15 -16 -27 -22 -15 -8 -19 -8 -14 0 10 15 -7 14
-23 -1 -18 -18 -9 14 64 237 34 105 66 206 71 225 5 22 9 28 12 18 3 -15 7
-16 24 -7z m-2042 -181 c-14 -10 -27 -16 -30 -13 -6 6 30 33 44 33 6 0 0 -9
-14 -20z m-40 -14 c0 -3 -4 -8 -10 -11 -5 -3 -10 -1 -10 4 0 6 5 11 10 11 6 0
10 -2 10 -4z m149 -201 c2 -112 -6 -211 -17 -201 -2 3 -16 -4 -30 -14 -13 -11
-30 -20 -38 -20 -7 0 -14 -3 -16 -7 -4 -9 -99 -43 -121 -43 -8 0 -18 -12 -21
-26 -8 -31 1 -45 15 -24 8 13 12 12 24 -4 21 -27 19 -33 -12 -40 -27 -8 -43 5
-43 35 0 9 -11 47 -25 84 -22 58 -59 216 -52 220 26 16 91 45 102 45 7 0 26
11 42 24 15 13 43 27 61 31 18 4 36 13 39 21 3 8 9 11 14 8 6 -3 16 0 24 6 8
6 19 9 25 5 5 -3 10 1 10 10 0 9 4 14 8 11 5 -3 10 -57 11 -121z m-519 61 c0
-2 -21 -20 -47 -39 -50 -36 -88 -54 -78 -37 3 6 12 10 20 10 8 0 18 6 22 13
15 24 83 67 83 53z m3588 -136 c2 -6 8 -10 13 -10 5 0 20 -10 35 -22 14 -13
29 -23 34 -23 5 0 22 -10 39 -23 34 -25 41 -58 14 -65 -15 -4 -14 -5 3 -6 17
-1 20 -6 16 -32 -4 -28 -2 -30 16 -25 17 6 21 1 27 -25 4 -18 3 -35 -4 -42
-19 -19 -13 -40 10 -34 12 3 22 0 25 -8 3 -7 14 -11 24 -8 11 3 16 11 13 18
-6 16 38 17 49 1 4 -5 26 -11 49 -12 31 -2 47 -9 61 -26 15 -19 18 -20 18 -5
0 21 18 23 26 2 7 -18 -14 -47 -27 -39 -5 3 -9 -2 -9 -10 0 -18 31 -21 47 -5
16 16 43 3 43 -21 0 -11 5 -20 10 -20 6 0 10 5 10 10 0 6 7 10 15 10 15 0 45
-49 45 -75 0 -8 6 -15 13 -15 19 0 40 -47 24 -54 -7 -2 -2 -5 11 -5 22 -1 45
-36 35 -53 -2 -5 0 -8 5 -8 6 0 8 -9 5 -20 -4 -13 1 -26 13 -35 17 -13 17 -14
2 -15 -11 0 -15 -5 -12 -14 3 -7 -2 -16 -10 -19 -17 -7 -22 -37 -6 -37 6 0 10
4 10 8 0 5 7 17 15 28 13 17 14 14 8 -33 -4 -34 -2 -53 5 -53 16 0 9 -50 -8
-51 -10 0 -11 -2 -2 -6 16 -6 15 -28 -3 -43 -8 -7 -15 -27 -15 -44 0 -18 -5
-37 -10 -42 -12 -12 17 -77 31 -69 5 4 6 -1 2 -10 -3 -10 0 -21 7 -25 8 -5 10
-17 6 -34 -4 -15 -11 -24 -16 -21 -22 14 1 -52 23 -66 5 -4 6 -12 2 -18 -5 -9
-10 -9 -21 0 -11 9 -14 8 -14 -5 0 -9 5 -16 11 -16 6 0 9 -7 5 -15 -3 -8 -1
-15 4 -15 5 0 7 -7 4 -15 -4 -8 -1 -21 4 -28 7 -8 7 -18 2 -27 -8 -12 -10 -12
-15 2 -4 10 -13 15 -23 12 -14 -5 -13 -2 2 10 11 9 17 18 14 22 -10 9 -48 -20
-48 -37 0 -8 -3 -19 -7 -23 -5 -4 -9 -12 -9 -17 -3 -22 -5 -23 -13 -10 -6 9
-9 4 -9 -15 0 -16 4 -34 9 -40 6 -7 5 -23 -2 -40 -7 -16 -13 -36 -13 -44 -1
-8 -9 -14 -18 -14 -14 1 -15 -2 -5 -17 9 -15 9 -23 0 -38 -7 -10 -9 -22 -5
-25 13 -13 12 -46 -2 -46 -7 0 -19 -7 -26 -15 -16 -19 1 -42 33 -47 20 -3 20
-5 -8 -18 -19 -10 -31 -24 -33 -40 l-3 -25 26 28 c14 16 30 25 35 22 15 -9 13
-19 -16 -60 -14 -20 -23 -45 -21 -54 3 -12 7 -9 17 12 14 29 30 36 30 13 0 -8
3 -21 6 -30 4 -11 1 -16 -10 -16 -15 0 -19 -12 -19 -65 0 -44 3 -50 33 -70 34
-23 41 -50 10 -40 -22 7 -23 5 -14 -19 3 -9 9 -14 13 -12 4 3 12 -4 19 -15 10
-16 9 -19 -7 -19 -23 0 -51 -29 -30 -31 8 -1 21 -2 29 -3 11 -1 14 -11 12 -41
-5 -50 -6 -52 -29 -26 -22 26 -33 27 -33 1 0 -21 27 -40 48 -33 17 7 15 -14
-3 -21 -8 -3 -15 -15 -15 -26 0 -12 -4 -18 -10 -15 -5 3 -10 -3 -10 -14 0 -10
-6 -22 -12 -25 -7 -2 -2 -3 12 -2 14 2 31 -1 38 -6 8 -7 12 -7 12 1 0 6 5 11
10 11 6 0 10 -7 10 -15 0 -9 -9 -15 -25 -15 -14 0 -25 -4 -25 -9 0 -5 8 -8 18
-7 9 0 17 -6 17 -14 0 -9 -11 -15 -28 -17 -21 -1 -30 4 -37 23 -12 30 -24 32
-14 2 4 -13 19 -33 33 -46 21 -18 23 -24 12 -31 -11 -7 -10 -14 8 -40 12 -17
21 -41 20 -54 -1 -12 1 -34 6 -50 6 -22 10 -25 21 -16 17 14 34 3 34 -22 0
-11 -4 -17 -10 -14 -18 11 -11 -8 12 -32 17 -18 23 -38 25 -87 3 -60 2 -65
-27 -87 -28 -22 -43 -48 -19 -34 12 8 38 -23 39 -46 0 -9 7 -20 16 -23 8 -3
12 -10 9 -16 -3 -5 -2 -10 3 -10 6 0 12 7 16 15 3 8 11 15 18 15 10 0 10 -3
-1 -9 -8 -5 -12 -18 -8 -30 3 -12 2 -21 -3 -21 -4 0 -10 -9 -13 -20 -3 -11
-12 -20 -21 -20 -18 0 -22 -16 -4 -22 6 -2 12 -13 13 -25 1 -16 -5 -20 -27
-21 -30 -1 -36 15 -15 37 10 11 7 12 -15 7 -21 -5 -28 -3 -28 9 0 8 8 16 18
17 9 0 23 2 30 2 21 2 31 29 20 56 l-10 25 -9 -23 c-5 -13 -22 -29 -39 -35
-16 -6 -30 -17 -30 -24 0 -22 -19 -14 -26 11 -4 17 -11 22 -24 19 -13 -4 -19
1 -22 18 -2 13 -14 29 -28 36 -24 12 -24 13 -3 13 20 0 21 5 19 63 -1 35 -6
69 -10 76 -4 6 -4 20 0 29 4 9 8 26 8 36 1 25 26 34 26 9 1 -17 1 -17 15 1 10
13 12 23 5 30 -10 10 -52 17 -45 7 2 -4 -3 -14 -10 -24 -11 -16 -16 -16 -34
-5 -12 7 -21 23 -21 35 0 13 -6 23 -14 23 -8 0 -17 4 -21 9 -3 6 3 10 12 10
76 1 126 9 134 22 15 24 11 59 -7 59 -14 0 -14 -3 -4 -15 11 -13 9 -15 -16
-13 -16 1 -39 -4 -52 -11 -39 -21 -53 0 -48 74 3 60 2 63 -20 68 -16 3 -28 -3
-38 -17 -15 -21 -15 -21 -15 5 -1 14 -6 30 -13 37 -9 9 -9 15 -1 23 14 14 -6
71 -23 65 -21 -8 -25 7 -7 26 9 10 13 21 10 25 -4 3 -7 1 -7 -5 0 -7 -4 -12
-9 -12 -10 0 -2 50 11 66 5 8 3 14 -7 18 -8 3 -15 14 -15 25 0 10 -7 22 -16
25 -8 3 -12 10 -9 16 3 5 2 10 -3 10 -14 0 -7 80 11 122 11 27 12 38 4 41 -8
3 -5 10 8 21 19 15 19 15 -12 16 -26 0 -33 4 -33 19 0 14 8 21 28 23 20 2 28
9 30 28 l4 25 -23 -24 c-14 -15 -24 -20 -27 -13 -5 17 -32 15 -38 -3 -9 -23
-21 -18 -26 10 -4 18 -1 25 10 25 11 0 12 3 3 13 -12 16 14 96 36 110 7 4 9
15 6 23 -5 13 -7 13 -14 2 -6 -9 -9 -7 -9 10 0 12 5 22 11 22 5 0 8 4 5 8 -9
15 14 80 30 86 10 4 23 -1 31 -11 14 -17 14 -17 9 0 -4 13 0 20 14 24 10 3 25
18 32 35 9 20 18 28 31 24 23 -6 22 2 -5 24 -18 14 -22 28 -23 66 l0 49 -40 1
c-25 0 -45 -5 -53 -15 -10 -12 -15 -13 -18 -3 -3 6 -11 9 -16 6 -6 -4 -8 -2
-4 4 3 6 0 16 -7 24 -20 19 -27 53 -33 148 -3 47 -6 85 -7 86 -1 1 -12 5 -24
8 -20 6 -23 4 -23 -21 l-1 -28 -13 24 c-9 16 -15 20 -21 12 -4 -7 -13 -10 -21
-7 -8 3 -14 0 -14 -6 0 -7 -6 -6 -17 3 -22 17 -51 18 -61 2 -6 -9 -16 -8 -40
4 -25 12 -31 20 -26 36 4 14 2 18 -7 15 -16 -6 -14 -49 2 -59 7 -4 6 -8 -4
-12 -22 -8 -33 4 -50 58 -43 133 -71 416 -64 650 4 171 27 387 49 480 7 28 11
53 11 56 -3 10 72 -1 75 -11z m-3448 -230 c0 -5 -5 -10 -11 -10 -5 0 -7 5 -4
10 3 6 8 10 11 10 2 0 4 -4 4 -10z m-563 -22 c-3 -8 -6 -5 -6 6 -1 11 2 17 5
13 3 -3 4 -12 1 -19z m-2697 -28 c0 -5 -4 -10 -10 -10 -5 0 -10 5 -10 10 0 6
5 10 10 10 6 0 10 -4 10 -10z m2600 -89 c0 -5 -20 -11 -45 -13 -51 -4 -55 -1
-22 12 29 12 67 12 67 1z m1049 -58 c22 -48 12 -55 -24 -17 -19 20 -35 37 -35
38 0 1 11 2 24 2 16 1 27 -6 35 -23z m-1044 -51 c-5 -21 -11 -23 -52 -20 -42
3 -48 6 -60 35 -18 46 2 52 28 9 24 -41 30 -40 54 11 18 37 18 37 27 13 5 -14
6 -35 3 -48z m-1939 34 c8 -9 10 -17 4 -21 -10 -6 -50 15 -50 27 0 13 31 9 46
-6z m-86 -16 c0 -5 -4 -10 -9 -10 -6 0 -13 5 -16 10 -3 6 1 10 9 10 9 0 16 -4
16 -10z m1459 -29 c-13 -11 -26 -17 -29 -14 -6 6 30 33 43 33 5 0 -1 -9 -14
-19z m391 -11 c0 -5 -2 -10 -4 -10 -3 0 -8 5 -11 10 -3 6 -1 10 4 10 6 0 11
-4 11 -10z m134 -141 c18 -27 21 -65 5 -74 -15 -10 -17 -6 -49 86 -38 108 -38
140 -1 67 16 -31 36 -67 45 -79z m-201 107 c28 11 27 -14 -2 -35 -16 -12 -31
-21 -34 -21 -12 0 -16 34 -5 42 11 6 10 8 0 8 -7 0 -10 5 -7 10 5 8 11 8 20 0
7 -6 19 -8 28 -4z m242 -1 c0 -5 -15 -11 -32 -13 -25 -3 -33 1 -33 13 0 12 8
16 33 13 17 -2 32 -7 32 -13z m-196 -55 c-13 -11 -32 -25 -42 -31 -17 -9 -17
-8 -8 10 11 20 62 53 70 45 2 -2 -7 -13 -20 -24z m191 16 c0 -8 -5 -18 -11
-22 -14 -8 -33 11 -25 25 10 16 36 13 36 -3z m-160 -46 c0 -15 -7 -20 -27 -20
l-28 0 25 20 c31 24 30 24 30 0z m1210 -16 c-3 -5 -12 -8 -20 -7 -8 1 -18 -4
-22 -10 -5 -8 -8 -4 -8 10 0 18 5 21 28 19 15 -2 25 -7 22 -12z m-1421 -31
c31 -18 40 -33 21 -33 -5 0 -10 5 -10 10 0 6 -6 10 -12 10 -16 1 -56 30 -41
30 6 0 25 -8 42 -17z m-107 -35 c-6 -18 -9 -73 -7 -121 2 -64 0 -87 -8 -84
-19 6 -20 129 -2 192 9 31 19 54 22 51 3 -2 0 -20 -5 -38z m320 26 c5 -3 8
-12 8 -19 0 -17 -19 -11 -65 18 l-30 19 40 -7 c22 -4 43 -9 47 -11z m-141 -75
c-6 -43 -31 -68 -31 -31 0 28 21 83 29 77 4 -2 5 -23 2 -46z m-55 -19 c-1 -49
-2 -51 -53 -85 -30 -20 -55 -31 -58 -25 -9 15 -1 24 49 49 25 12 46 26 46 31
0 11 -26 20 -60 20 -57 0 -44 39 16 50 22 4 44 8 50 9 7 1 11 -18 10 -49z
m112 27 c8 -10 6 -16 -9 -25 -17 -11 -19 -9 -19 13 0 27 12 32 28 12z m152 -7
c8 -5 12 -10 8 -10 -4 0 -47 -11 -94 -25 -48 -14 -89 -23 -92 -21 -2 3 22 18
54 35 61 31 98 38 124 21z m1228 -46 c14 -49 15 -84 3 -84 -17 0 -61 42 -61
59 0 26 31 84 39 74 4 -4 13 -27 19 -49z m-1159 -63 c25 -84 27 -123 6 -115
-17 7 -21 -11 -5 -21 15 -9 12 -32 -6 -39 -8 -3 -40 -3 -70 0 -57 7 -69 22
-36 46 9 7 22 22 28 33 6 11 20 24 32 30 26 11 27 23 7 49 -19 26 -19 45 2 68
9 10 17 18 19 18 1 0 11 -31 23 -69z m-519 9 c0 -41 -34 -62 -96 -58 -40 3
-48 6 -49 24 -1 19 5 22 54 27 34 4 58 12 63 21 14 25 28 18 28 -14z m420 -7
c-1 -13 -90 -179 -90 -167 0 12 46 149 55 164 7 12 35 14 35 3z m1265 -47 c23
-21 27 -56 6 -56 -11 0 -77 73 -84 93 -6 16 -4 16 23 2 16 -8 40 -26 55 -39z
m-1325 37 c0 -20 -13 -53 -20 -53 -14 0 -40 30 -40 46 0 9 11 14 30 14 17 0
30 -3 30 -7z m-55 -40 c38 -42 38 -42 26 -62 -14 -21 -46 -4 -77 40 -23 34
-25 42 -13 50 22 14 26 12 64 -28z m-45 -43 l58 -61 -14 -47 c-24 -79 -23 -78
-40 -61 -13 13 -13 20 0 57 19 52 5 64 -33 28 -31 -30 -44 -32 -61 -12 -9 12
-6 22 14 53 26 38 33 63 17 63 -5 0 -25 -7 -44 -15 -48 -20 -57 -19 -57 5 0
11 1 20 3 20 1 0 20 7 42 15 22 8 44 14 48 15 5 0 34 -27 67 -60z m-114 -94
c22 -28 58 -63 80 -78 46 -33 168 -67 237 -68 44 0 48 -2 45 -22 -3 -21 -8
-23 -73 -22 -101 1 -212 49 -280 122 -61 64 -119 159 -102 165 7 3 21 -6 32
-21 11 -14 38 -48 61 -76z m-223 10 c3 -8 19 -17 36 -21 22 -5 31 -12 31 -27
0 -20 2 -19 25 6 27 29 51 35 41 10 -7 -20 14 -42 37 -38 10 1 28 -7 40 -19
61 -59 98 -84 138 -96 76 -23 110 -42 121 -66 7 -15 16 -21 26 -18 10 4 13 1
10 -8 -8 -22 11 -51 29 -45 14 6 15 -2 11 -58 -3 -35 -9 -70 -14 -77 -5 -8 -9
-18 -9 -24 -4 -55 -19 -103 -30 -99 -10 4 -13 -10 -12 -60 1 -36 -1 -66 -5
-66 -5 0 -8 -14 -8 -31 0 -42 -17 -28 -25 22 -4 24 -10 37 -15 30 -7 -12 -28
-19 -64 -20 -13 -1 -16 -5 -9 -13 14 -19 16 -88 2 -88 -6 0 -9 -6 -6 -12 18
-48 18 -58 3 -52 -26 10 -19 -12 19 -62 19 -25 32 -50 29 -56 -4 -6 -3 -13 2
-17 14 -9 52 -92 60 -126 9 -42 27 -85 37 -85 4 0 5 -16 1 -35 -4 -21 -2 -35
4 -35 9 0 23 -88 22 -132 0 -10 -1 -28 -1 -40 0 -13 3 -56 7 -97 4 -46 3 -75
-3 -80 -6 -3 -14 -21 -18 -40 -6 -29 -5 -33 9 -28 9 4 16 2 16 -3 0 -6 -4 -10
-10 -10 -5 0 -10 -8 -10 -19 0 -10 -7 -24 -16 -32 -8 -7 -13 -21 -10 -32 2
-10 2 -16 -1 -13 -9 8 -35 -23 -28 -34 3 -5 -2 -21 -11 -35 -9 -14 -13 -32
-10 -41 3 -9 -3 -29 -15 -45 -11 -16 -17 -29 -14 -29 4 0 1 -10 -7 -22 -8 -13
-18 -35 -22 -50 -3 -16 -13 -28 -21 -28 -17 0 -18 -43 -2 -77 13 -29 3 -53
-23 -53 -29 0 -25 -16 9 -31 31 -14 33 -29 3 -24 -9 1 -11 0 -4 -2 21 -8 13
-23 -12 -23 -35 0 -39 -13 -15 -44 18 -22 18 -26 4 -26 -12 0 -15 -6 -10 -20
4 -13 -2 -27 -18 -44 -24 -24 -24 -25 -6 -42 23 -21 24 -40 3 -48 -13 -5 -15
-15 -11 -43 5 -29 2 -40 -14 -54 l-21 -18 21 -18 c26 -21 27 -51 4 -69 -17
-12 -17 -13 0 -19 28 -11 22 -38 -8 -33 -21 4 -25 1 -25 -18 0 -13 -4 -24 -10
-24 -5 0 -10 -8 -10 -18 0 -11 -12 -22 -33 -30 -48 -17 -67 -16 -61 6 5 16 5
16 -6 0 -20 -32 -36 -21 -32 20 2 20 8 42 13 48 6 8 4 14 -6 18 -8 3 -15 0
-15 -7 0 -6 -9 -2 -21 10 -13 12 -21 34 -22 57 -1 28 -5 36 -19 36 -10 0 -18
5 -18 10 0 6 7 10 15 10 8 0 15 9 15 19 0 11 5 23 10 26 6 4 4 12 -5 21 -17
18 -20 40 -5 49 6 4 -3 25 -21 51 -20 30 -28 51 -24 64 4 11 9 20 13 20 11 0
7 73 -6 96 -6 12 -9 24 -6 27 10 9 32 -17 27 -30 -6 -14 9 -16 45 -7 20 6 32
34 15 34 -5 0 -17 18 -27 40 -15 32 -17 42 -6 54 11 15 8 88 -7 139 -4 15 0
17 21 11 22 -5 25 -3 22 18 -1 13 -6 29 -10 36 -4 7 -4 17 -1 22 3 6 -1 13 -9
16 -12 5 -10 11 12 32 19 18 22 23 9 19 -42 -16 -65 -18 -71 -8 -4 7 -1 8 8 5
13 -5 15 0 10 25 -4 20 -3 31 5 31 6 0 11 -7 11 -15 0 -20 16 -19 24 2 6 15 8
15 16 3 8 -12 10 -11 10 7 0 12 -5 23 -11 25 -19 6 -21 158 -2 198 9 19 20 38
25 41 5 3 -5 6 -22 6 -20 0 -30 -5 -30 -16 0 -11 -3 -12 -11 -4 -12 12 4 53
21 53 15 0 12 37 -2 43 -8 3 -6 6 5 6 9 1 17 7 17 14 0 6 14 18 31 26 23 10
28 16 18 22 -8 5 -24 9 -36 9 -24 0 -32 25 -11 32 8 3 4 15 -12 38 -23 32 -23
33 -4 47 13 10 15 16 7 21 -6 4 -15 20 -19 36 -6 24 -4 28 9 23 9 -3 18 1 21
9 8 21 7 34 -1 33 -27 -4 -34 2 -19 17 9 8 16 20 16 25 0 6 4 8 10 4 5 -3 6
-13 3 -23 -5 -13 -3 -14 6 -6 18 16 9 49 -12 48 -12 -1 -17 6 -17 22 0 12 -4
26 -10 29 -5 3 -10 15 -10 26 0 10 -4 19 -10 19 -5 0 -10 -7 -10 -15 0 -8 -5
-15 -11 -15 -7 0 -9 10 -4 28 4 15 9 52 10 82 2 30 6 67 10 83 7 27 -2 33 -42
28 -7 -1 -10 5 -7 13 3 8 -4 20 -16 29 -16 11 -19 21 -14 41 5 21 3 25 -10 20
-22 -8 -21 15 2 32 16 13 15 14 -7 20 l-24 7 24 18 24 19 -25 0 c-22 1 -23 2
-6 9 19 7 19 8 -2 13 -12 4 -22 12 -22 18 0 7 7 10 15 6 22 -8 18 14 -7 42
l-23 24 25 20 c18 15 21 22 11 26 -11 4 -11 6 0 13 11 6 10 11 -3 26 -24 28
-27 46 -10 77 9 20 12 44 8 72 -3 24 0 69 6 100 9 44 9 59 0 62 -17 5 -15 31
2 38 10 4 13 15 9 40 -4 26 -1 40 13 54 23 23 40 25 47 6z m573 -16 c34 0 49
-23 22 -33 -8 -2 -13 -22 -12 -53 0 -27 -1 -43 -4 -36 -3 10 -7 10 -17 2 -8
-7 -24 -10 -37 -8 -19 2 -24 10 -26 43 -5 58 -17 63 -46 16 -23 -36 -29 -40
-46 -31 -22 12 -19 24 23 84 18 26 24 28 65 22 25 -3 60 -6 78 -6z m1350 -22
c3 -5 4 -12 1 -14 -6 -6 -47 18 -47 27 0 10 39 -1 46 -13z m1534 -52 c0 -2 -7
-7 -16 -10 -8 -3 -12 -2 -9 4 6 10 25 14 25 6z m-2990 -26 c0 -5 -4 -10 -10
-10 -5 0 -10 5 -10 10 0 6 5 10 10 10 6 0 10 -4 10 -10z m5000 -39 c0 -6 -4
-13 -10 -16 -5 -3 -10 1 -10 9 0 9 5 16 10 16 6 0 10 -4 10 -9z m-3475 -41 c3
-5 1 -10 -4 -10 -6 0 -11 5 -11 10 0 6 2 10 4 10 3 0 8 -4 11 -10z m342 -92
c0 -7 4 -22 8 -33 6 -14 5 -17 -2 -10 -15 14 -26 55 -15 55 5 0 9 -6 9 -12z
m327 -49 c-8 -14 -24 -10 -24 6 0 9 6 12 15 9 8 -4 12 -10 9 -15z m2449 -144
c-3 -44 -9 -53 -24 -38 -8 8 -8 13 0 17 6 4 8 20 4 38 -5 24 -3 30 8 26 9 -4
13 -18 12 -43z m247 -85 c0 -11 -2 -20 -4 -20 -2 0 -6 9 -9 20 -3 11 -1 20 4
20 5 0 9 -9 9 -20z m-3390 -110 c0 -5 -8 -10 -17 -10 -15 0 -16 2 -3 10 19 12
20 12 20 0z m3360 -20 c0 -5 -5 -10 -11 -10 -5 0 -7 5 -4 10 3 6 8 10 11 10 2
0 4 -4 4 -10z m-2270 -20 c0 -5 -2 -10 -4 -10 -3 0 -8 5 -11 10 -3 6 -1 10 4
10 6 0 11 -4 11 -10z m297 -116 c-3 -3 -12 -4 -19 -1 -8 3 -5 6 6 6 11 1 17
-2 13 -5z m-2040 -10 c-3 -3 -12 -4 -19 -1 -8 3 -5 6 6 6 11 1 17 -2 13 -5z
m1916 -11 c-7 -2 -21 -2 -30 0 -10 3 -4 5 12 5 17 0 24 -2 18 -5z m-1450 -28
c-3 -9 -8 -14 -10 -11 -3 3 -2 9 2 15 9 16 15 13 8 -4z m257 1 c0 -3 -4 -8
-10 -11 -5 -3 -10 -1 -10 4 0 6 5 11 10 11 6 0 10 -2 10 -4z m670 -10 c0 -3
-4 -8 -10 -11 -5 -3 -10 -1 -10 4 0 6 5 11 10 11 6 0 10 -2 10 -4z m810 -6 c0
-5 -7 -10 -16 -10 -8 0 -12 5 -9 10 3 6 10 10 16 10 5 0 9 -4 9 -10z m-390
-40 c0 -5 -2 -10 -4 -10 -3 0 -8 5 -11 10 -3 6 -1 10 4 10 6 0 11 -4 11 -10z
m-886 -55 c-22 -17 -34 -19 -34 -6 0 5 8 12 18 14 32 9 36 7 16 -8z m1046 7
c0 -4 -10 -9 -22 -9 -18 -2 -20 0 -8 7 18 12 30 13 30 2z m55 -2 c-3 -5 -13
-10 -21 -10 -8 0 -14 5 -14 10 0 6 9 10 21 10 11 0 17 -4 14 -10z m-1290 -10
c-3 -5 -12 -10 -18 -10 -7 0 -6 4 3 10 19 12 23 12 15 0z m720 0 c-3 -5 -13
-10 -21 -10 -8 0 -14 5 -14 10 0 6 9 10 21 10 11 0 17 -4 14 -10z m612 4 c-3
-3 -12 -4 -19 -1 -8 3 -5 6 6 6 11 1 17 -2 13 -5z m-520 -15 c-14 -8 -22 -8
-30 0 -8 8 -3 11 19 11 25 -1 27 -2 11 -11z m-1822 -9 c3 -6 -1 -7 -9 -4 -18
7 -21 14 -7 14 6 0 13 -4 16 -10z m3984 -34 c0 -7 -2 -7 -5 1 -3 7 -12 9 -20
6 -10 -4 -12 0 -8 11 5 13 9 14 20 5 8 -6 14 -17 13 -23z m-1254 14 c-3 -5
-11 -10 -16 -10 -6 0 -7 5 -4 10 3 6 11 10 16 10 6 0 7 -4 4 -10z m-1168 -16
c-3 -3 -12 -4 -19 -1 -8 3 -5 6 6 6 11 1 17 -2 13 -5z m-1522 -14 c-3 -5 -12
-10 -18 -10 -7 0 -6 4 3 10 19 12 23 12 15 0z m465 0 c0 -5 -7 -10 -15 -10 -8
0 -15 5 -15 10 0 6 7 10 15 10 8 0 15 -4 15 -10z m-30 -40 c-8 -5 -22 -9 -30
-9 -10 0 -8 3 5 9 27 12 43 12 25 0z m567 4 c-3 -3 -12 -4 -19 -1 -8 3 -5 6 6
6 11 1 17 -2 13 -5z m-1085 -46 c-7 -7 -12 -8 -12 -2 0 14 12 26 19 19 2 -3
-1 -11 -7 -17z m968 8 c0 -3 -4 -8 -10 -11 -5 -3 -10 -1 -10 4 0 6 5 11 10 11
6 0 10 -2 10 -4z m-634 -35 c-4 -6 -12 -11 -18 -11 -7 0 -7 4 1 13 6 8 9 16 7
19 -1 3 1 2 7 -2 5 -5 6 -13 3 -19z m-305 -4 c-10 -9 -11 -8 -5 6 3 10 9 15
12 12 3 -3 0 -11 -7 -18z m1609 -27 c0 -5 -4 -10 -9 -10 -6 0 -13 5 -16 10 -3
6 1 10 9 10 9 0 16 -4 16 -10z m-650 -15 c14 -8 19 -14 10 -14 -8 0 -24 6 -34
14 -25 19 -9 19 24 0z m-120 -9 c0 -11 -19 -15 -25 -6 -3 5 1 10 9 10 9 0 16
-2 16 -4z m-227 -13 c-7 -2 -19 -2 -25 0 -7 3 -2 5 12 5 14 0 19 -2 13 -5z
m-83 -7 c0 -3 -4 -8 -10 -11 -5 -3 -10 -1 -10 4 0 6 5 11 10 11 6 0 10 -2 10
-4z m2080 -10 c0 -3 -4 -8 -10 -11 -5 -3 -10 -1 -10 4 0 6 5 11 10 11 6 0 10
-2 10 -4z m-695 -16 c-3 -5 -11 -10 -16 -10 -6 0 -7 5 -4 10 3 6 11 10 16 10
6 0 7 -4 4 -10z m-1409 -37 c-10 -10 -19 5 -10 18 6 11 8 11 12 0 2 -7 1 -15
-2 -18z m1053 6 c-16 -10 -23 -4 -14 10 3 6 11 8 17 5 6 -4 5 -9 -3 -15z
m2821 -9 c0 -11 -4 -20 -10 -20 -5 0 -10 9 -10 20 0 11 5 20 10 20 6 0 10 -9
10 -20z m-3413 -6 c-3 -3 -12 -4 -19 -1 -8 3 -5 6 6 6 11 1 17 -2 13 -5z m702
-35 c-16 -10 -23 -4 -14 10 3 6 11 8 17 5 6 -4 5 -9 -3 -15z m154 4 c-7 -2
-21 -2 -30 0 -10 3 -4 5 12 5 17 0 24 -2 18 -5z m1174 1 c-3 -3 -12 -4 -19 -1
-8 3 -5 6 6 6 11 1 17 -2 13 -5z m-2107 -21 c0 -14 -19 -38 -25 -32 -8 8 5 39
16 39 5 0 9 -3 9 -7z m-80 -13 c0 -5 -2 -10 -4 -10 -3 0 -8 5 -11 10 -3 6 -1
10 4 10 6 0 11 -4 11 -10z m1010 -11 c0 -10 -12 -11 -34 -3 -9 3 -14 10 -11
14 6 10 45 1 45 -11z m-973 5 c-3 -3 -12 -4 -19 -1 -8 3 -5 6 6 6 11 1 17 -2
13 -5z m1513 -4 c0 -5 -5 -10 -11 -10 -5 0 -7 5 -4 10 3 6 8 10 11 10 2 0 4
-4 4 -10z m-1889 -23 c-13 -13 -26 -3 -16 12 3 6 11 8 17 5 6 -4 6 -10 -1 -17z
m3619 3 c0 -5 -2 -10 -4 -10 -3 0 -8 5 -11 10 -3 6 -1 10 4 10 6 0 11 -4 11
-10z m-2960 -20 c0 -5 -5 -10 -11 -10 -5 0 -7 5 -4 10 3 6 8 10 11 10 2 0 4
-4 4 -10z m773 -7 c-7 -2 -21 -2 -30 0 -10 3 -4 5 12 5 17 0 24 -2 18 -5z
m2482 -12 c3 -5 1 -12 -5 -16 -5 -3 -10 1 -10 9 0 18 6 21 15 7z m-3385 -15
c0 -2 -7 -6 -15 -10 -8 -3 -15 -1 -15 4 0 6 7 10 15 10 8 0 15 -2 15 -4z m50
-16 c0 -5 -9 -10 -21 -10 -11 0 -17 5 -14 10 3 6 13 10 21 10 8 0 14 -4 14
-10z m-845 -20 c3 -5 1 -10 -4 -10 -6 0 -11 5 -11 10 0 6 2 10 4 10 3 0 8 -4
11 -10z m1330 -27 c6 -34 -4 -47 -29 -37 -22 8 -20 25 3 31 13 3 17 11 13 26
-3 12 -2 20 1 17 3 -3 8 -20 12 -37z m440 16 c11 -16 1 -19 -13 -3 -7 8 -8 14
-3 14 5 0 13 -5 16 -11z m419 -4 c-4 -8 -10 -15 -14 -15 -4 0 -10 7 -14 15 -4
10 1 15 14 15 13 0 18 -5 14 -15z m-1044 -9 c0 -3 -4 -8 -10 -11 -5 -3 -10 -1
-10 4 0 6 5 11 10 11 6 0 10 -2 10 -4z m130 -32 c0 -8 -7 -14 -15 -14 -15 0
-21 21 -9 33 10 9 24 -2 24 -19z m-655 -2 c-3 -3 -11 0 -18 7 -9 10 -8 11 6 5
10 -3 15 -9 12 -12z m170 -42 c3 -5 0 -10 -9 -10 -8 0 -23 -3 -33 -7 -16 -6
-16 -5 -4 10 15 19 37 22 46 7z m585 -10 c0 -5 -7 -10 -16 -10 -8 0 -12 5 -9
10 3 6 10 10 16 10 5 0 9 -4 9 -10z m580 0 c0 -5 -5 -10 -11 -10 -5 0 -7 5 -4
10 3 6 8 10 11 10 2 0 4 -4 4 -10z m-350 -20 c0 -5 -7 -7 -15 -4 -8 4 -15 8
-15 10 0 2 7 4 15 4 8 0 15 -4 15 -10z m-1253 -16 c-3 -3 -12 -4 -19 -1 -8 3
-5 6 6 6 11 1 17 -2 13 -5z m3933 -14 c0 -5 -5 -10 -11 -10 -5 0 -7 5 -4 10 3
6 8 10 11 10 2 0 4 -4 4 -10z m-3493 -14 c-2 -6 -16 -10 -31 -8 -14 1 -26 -2
-26 -8 0 -5 -5 -10 -12 -10 -6 0 -4 8 6 19 18 20 69 26 63 7z m843 10 c0 -2
-7 -7 -16 -10 -8 -3 -12 -2 -9 4 6 10 25 14 25 6z m1080 0 c0 -2 -7 -7 -16
-10 -8 -3 -12 -2 -9 4 6 10 25 14 25 6z m-1132 -26 c-14 -22 -24 -19 -15 5 4
8 11 15 17 15 6 0 6 -7 -2 -20z m-1017 -13 c-10 -9 -11 -8 -5 6 3 10 9 15 12
12 3 -3 0 -11 -7 -18z m619 19 c0 -3 -4 -8 -10 -11 -5 -3 -10 -1 -10 4 0 6 5
11 10 11 6 0 10 -2 10 -4z m3100 -33 c0 -8 5 -11 10 -8 6 3 10 -1 10 -9 0 -20
-9 -20 -32 1 -23 21 -26 62 -3 43 8 -7 15 -19 15 -27z m-1835 17 c3 -6 -4 -10
-17 -10 -18 0 -20 2 -8 10 19 12 18 12 25 0z m-985 -10 c0 -5 -4 -10 -10 -10
-5 0 -10 5 -10 10 0 6 5 10 10 10 6 0 10 -4 10 -10z m1337 4 c-3 -3 -12 -4
-19 -1 -8 3 -5 6 6 6 11 1 17 -2 13 -5z m-751 -29 c3 -8 -2 -22 -11 -32 -17
-16 -17 -16 -10 6 6 21 5 22 -14 12 -14 -8 -21 -8 -21 -1 0 5 7 10 15 10 8 0
15 5 15 10 0 15 20 12 26 -5z m364 5 c0 -5 -2 -10 -4 -10 -3 0 -8 5 -11 10 -3
6 -1 10 4 10 6 0 11 -4 11 -10z m230 -6 c0 -2 -12 -4 -26 -4 -14 0 -23 4 -20
9 6 8 46 4 46 -5z m-1430 -14 c0 -5 -9 -6 -20 -3 -11 3 -20 9 -20 13 0 5 9 6
20 3 11 -3 20 -9 20 -13z m173 1 c-2 -6 6 -11 18 -11 11 0 17 -4 14 -10 -8
-13 -45 -13 -45 -1 0 5 -3 17 -7 27 -4 12 -2 15 8 12 8 -3 13 -11 12 -17z m81
4 c3 -8 1 -15 -3 -15 -5 0 -11 7 -15 15 -3 8 -1 15 3 15 5 0 11 -7 15 -15z
m-304 -10 c7 -9 8 -15 2 -15 -5 0 -12 7 -16 15 -3 8 -4 15 -2 15 2 0 9 -7 16
-15z m-375 -5 c3 -5 2 -10 -4 -10 -5 0 -13 5 -16 10 -3 6 -2 10 4 10 5 0 13
-4 16 -10z m1825 0 c0 -5 -5 -10 -11 -10 -5 0 -7 5 -4 10 3 6 8 10 11 10 2 0
4 -4 4 -10z m1670 -10 c0 -5 -2 -10 -4 -10 -3 0 -8 5 -11 10 -3 6 -1 10 4 10
6 0 11 -4 11 -10z m-3672 -7 c-10 -2 -26 -2 -35 0 -10 3 -2 5 17 5 19 0 27 -2
18 -5z m-1808 -24 c0 -11 -4 -17 -10 -14 -5 3 -10 13 -10 21 0 8 5 14 10 14 6
0 10 -9 10 -21z m2969 -30 c-25 -16 -33 -9 -13 10 10 10 21 14 23 8 2 -5 -3
-13 -10 -18z m818 15 c-3 -3 -12 -4 -19 -1 -8 3 -5 6 6 6 11 1 17 -2 13 -5z
m-1222 -13 c3 -5 2 -12 -3 -15 -5 -3 -9 1 -9 9 0 17 3 19 12 6z m102 -43 c-3
-8 -6 -5 -6 6 -1 11 2 17 5 13 3 -3 4 -12 1 -19z m-1322 2 c3 -5 1 -10 -4 -10
-6 0 -11 5 -11 10 0 6 2 10 4 10 3 0 8 -4 11 -10z m465 -22 c0 -6 -6 -8 -14
-5 -7 3 -19 0 -25 -6 -8 -8 -11 -8 -11 2 0 7 -5 9 -12 5 -10 -6 -10 -5 0 8 13
16 62 13 62 -4z m759 -17 c-15 -5 -22 6 -14 19 6 9 10 9 16 -1 5 -8 4 -15 -2
-18z m571 19 c0 -5 -15 -10 -32 -9 -28 0 -30 2 -13 9 28 12 45 12 45 0z m53
-15 c-3 -9 -8 -14 -10 -11 -3 3 -2 9 2 15 9 16 15 13 8 -4z m40 -10 c-3 -9 -8
-14 -10 -11 -3 3 -2 9 2 15 9 16 15 13 8 -4z m2237 6 c0 -14 -18 -23 -31 -15
-8 4 -7 9 2 15 18 11 29 11 29 0z m-3163 -7 c-3 -3 -12 -4 -19 -1 -8 3 -5 6 6
6 11 1 17 -2 13 -5z m3200 -20 c-3 -3 -12 -4 -19 -1 -8 3 -5 6 6 6 11 1 17 -2
13 -5z m-2917 -14 c0 -5 -5 -10 -11 -10 -5 0 -7 5 -4 10 3 6 8 10 11 10 2 0 4
-4 4 -10z m1057 -6 c-3 -3 -12 -4 -19 -1 -8 3 -5 6 6 6 11 1 17 -2 13 -5z
m-1687 -8 c0 -2 -9 -6 -20 -9 -11 -3 -20 -1 -20 4 0 5 9 9 20 9 11 0 20 -2 20
-4z m337 -22 c-3 -3 -12 -4 -19 -1 -8 3 -5 6 6 6 11 1 17 -2 13 -5z m103 -2
c0 -4 -10 -9 -22 -9 -18 -2 -20 0 -8 7 18 12 30 13 30 2z m3130 -2 c0 -5 -5
-10 -11 -10 -5 0 -7 5 -4 10 3 6 8 10 11 10 2 0 4 -4 4 -10z m-2942 -27 c-6
-7 -19 -13 -30 -13 -16 0 -17 2 -6 14 17 19 52 17 36 -1z m249 11 c-3 -3 -12
-4 -19 -1 -8 3 -5 6 6 6 11 1 17 -2 13 -5z m-1072 -24 c3 -6 -1 -7 -9 -4 -18
7 -21 14 -7 14 6 0 13 -4 16 -10z m145 6 c0 -2 -7 -7 -16 -10 -8 -3 -12 -2 -9
4 6 10 25 14 25 6z m-420 -46 c0 -5 -2 -10 -4 -10 -3 0 -8 5 -11 10 -3 6 -1
10 4 10 6 0 11 -4 11 -10z m2488 -15 c-3 -3 -9 2 -12 12 -6 14 -5 15 5 6 7 -7
10 -15 7 -18z m-2093 -23 c-8 -8 -25 10 -25 26 0 13 2 13 14 -4 8 -10 13 -21
11 -22z m3615 17 c0 -5 -4 -9 -10 -9 -5 0 -10 7 -10 16 0 8 5 12 10 9 6 -3 10
-10 10 -16z m-2935 1 c3 -5 -1 -10 -10 -10 -9 0 -13 5 -10 10 3 6 8 10 10 10
2 0 7 -4 10 -10z m512 -26 c-3 -3 -12 -4 -19 -1 -8 3 -5 6 6 6 11 1 17 -2 13
-5z m-1172 -23 c-3 -6 -11 -8 -17 -5 -6 4 -5 9 3 15 16 10 23 4 14 -10z m560
9 c19 -8 19 -9 -2 -9 -12 -1 -25 4 -28 9 -7 12 2 12 30 0z m2895 -12 c0 -5
-10 -6 -22 -2 -20 6 -21 5 -9 -10 7 -9 21 -16 29 -16 12 0 13 -3 4 -12 -9 -9
-19 -4 -44 22 -20 20 -26 31 -15 27 9 -3 17 -2 17 2 0 5 9 7 20 4 11 -3 20
-10 20 -15z m-3100 -8 c0 -5 -5 -10 -11 -10 -5 0 -7 5 -4 10 3 6 8 10 11 10 2
0 4 -4 4 -10z m-97 -17 c-7 -2 -19 -2 -25 0 -7 3 -2 5 12 5 14 0 19 -2 13 -5z
m-178 -13 c3 -5 1 -10 -4 -10 -6 0 -11 5 -11 10 0 6 2 10 4 10 3 0 8 -4 11
-10z m355 -20 c0 -5 -4 -10 -10 -10 -5 0 -10 5 -10 10 0 6 5 10 10 10 6 0 10
-4 10 -10z m197 -6 c-3 -3 -12 -4 -19 -1 -8 3 -5 6 6 6 11 1 17 -2 13 -5z
m-997 -14 c0 -5 -5 -10 -11 -10 -5 0 -7 5 -4 10 3 6 8 10 11 10 2 0 4 -4 4
-10z m1055 -20 c3 -5 -1 -10 -9 -10 -9 0 -16 5 -16 10 0 6 4 10 9 10 6 0 13
-4 16 -10z m505 -6 c0 -2 -7 -4 -15 -4 -8 0 -15 4 -15 10 0 5 7 7 15 4 8 -4
15 -8 15 -10z m157 10 c-3 -3 -12 -4 -19 -1 -8 3 -5 6 6 6 11 1 17 -2 13 -5z
m2157 -10 c10 -25 7 -34 -9 -34 -9 0 -15 9 -15 25 0 28 15 34 24 9z m-3188
-14 c0 -20 -7 -25 -19 -13 -4 3 -2 12 4 20 15 17 15 17 15 -7z m81 14 c-3 -3
-12 -4 -19 -1 -8 3 -5 6 6 6 11 1 17 -2 13 -5z m163 -14 c0 -5 -2 -10 -4 -10
-3 0 -8 5 -11 10 -3 6 -1 10 4 10 6 0 11 -4 11 -10z m270 -4 c0 -3 -4 -8 -10
-11 -5 -3 -10 -1 -10 4 0 6 5 11 10 11 6 0 10 -2 10 -4z m-905 -16 c3 -5 2
-10 -4 -10 -5 0 -13 5 -16 10 -3 6 -2 10 4 10 5 0 13 -4 16 -10z m3635 0 c0
-5 -4 -10 -10 -10 -5 0 -10 5 -10 10 0 6 5 10 10 10 6 0 10 -4 10 -10z m-3380
-20 c0 -5 -2 -10 -4 -10 -3 0 -8 5 -11 10 -3 6 -1 10 4 10 6 0 11 -4 11 -10z
m740 0 c0 -5 -5 -10 -11 -10 -5 0 -7 5 -4 10 3 6 8 10 11 10 2 0 4 -4 4 -10z
m-63 -6 c-3 -3 -12 -4 -19 -1 -8 3 -5 6 6 6 11 1 17 -2 13 -5z m126 -18 c-3
-16 -10 -23 -19 -19 -19 7 -18 20 4 32 9 6 18 11 18 11 1 0 -1 -11 -3 -24z
m-2573 4 c0 -5 -4 -10 -10 -10 -5 0 -10 5 -10 10 0 6 5 10 10 10 6 0 10 -4 10
-10z m2640 -20 c0 -5 -2 -10 -4 -10 -3 0 -8 5 -11 10 -3 6 -1 10 4 10 6 0 11
-4 11 -10z m-513 -20 c-1 -11 -5 -20 -9 -20 -10 0 -10 4 -2 24 8 22 13 20 11
-4z m-517 6 c0 -3 -4 -8 -10 -11 -5 -3 -10 -1 -10 4 0 6 5 11 10 11 6 0 10 -2
10 -4z m640 -10 c0 -11 -19 -15 -25 -6 -3 5 1 10 9 10 9 0 16 -2 16 -4z
m-1100 -16 c0 -5 -2 -10 -4 -10 -3 0 -8 5 -11 10 -3 6 -1 10 4 10 6 0 11 -4
11 -10z m1545 0 c3 -6 -4 -10 -17 -10 -18 0 -20 2 -8 10 19 12 18 12 25 0z
m2440 0 c3 -5 1 -10 -4 -10 -6 0 -11 5 -11 10 0 6 2 10 4 10 3 0 8 -4 11 -10z
m-3430 -30 c19 -8 19 -9 -2 -9 -12 -1 -25 4 -28 9 -7 12 2 12 30 0z m-642 -7
c-7 -2 -19 -2 -25 0 -7 3 -2 5 12 5 14 0 19 -2 13 -5z m824 -9 c-3 -3 -12 -4
-19 -1 -8 3 -5 6 6 6 11 1 17 -2 13 -5z m528 -14 c3 -5 -1 -10 -10 -10 -9 0
-13 5 -10 10 3 6 8 10 10 10 2 0 7 -4 10 -10z m395 -34 c0 -3 -4 -8 -10 -11
-5 -3 -10 -1 -10 4 0 6 5 11 10 11 6 0 10 -2 10 -4z m-657 -13 c-7 -2 -19 -2
-25 0 -7 3 -2 5 12 5 14 0 19 -2 13 -5z m107 -53 c0 -5 -4 -10 -10 -10 -5 0
-10 5 -10 10 0 6 5 10 10 10 6 0 10 -4 10 -10z m-310 -50 c0 -5 -4 -10 -10
-10 -5 0 -10 5 -10 10 0 6 5 10 10 10 6 0 10 -4 10 -10z m-65 -48 c-3 -3 -11
0 -18 7 -9 10 -8 11 6 5 10 -3 15 -9 12 -12z m-2169 -189 c-10 -10 -19 5 -10
18 6 11 8 11 12 0 2 -7 1 -15 -2 -18z m2614 -28 c0 -2 -10 -10 -22 -16 -21
-11 -22 -11 -9 4 13 16 31 23 31 12z m-2467 -22 c-7 -2 -19 -2 -25 0 -7 3 -2
5 12 5 14 0 19 -2 13 -5z m1620 -110 c-7 -2 -19 -2 -25 0 -7 3 -2 5 12 5 14 0
19 -2 13 -5z m1167 -227 c0 -3 -4 -8 -10 -11 -5 -3 -10 -1 -10 4 0 6 5 11 10
11 6 0 10 -2 10 -4z m2970 -70 c0 -6 -4 -6 -8 2 -5 7 -16 10 -25 7 -12 -5 -14
-2 -10 15 5 20 7 20 24 4 11 -9 19 -22 19 -28z m-3390 -71 c0 -8 -4 -15 -9
-15 -5 0 -11 7 -15 15 -3 9 0 15 9 15 8 0 15 -7 15 -15z m3290 -25 c0 -5 -4
-10 -10 -10 -5 0 -10 5 -10 10 0 6 5 10 10 10 6 0 10 -4 10 -10z m-3430 -270
c0 -5 -2 -10 -4 -10 -3 0 -8 5 -11 10 -3 6 -1 10 4 10 6 0 11 -4 11 -10z m750
-150 c0 -5 -10 -10 -22 -9 -22 0 -22 1 -3 9 11 5 21 9 23 9 1 1 2 -3 2 -9z"/>
<path d="M7890 8265 c13 -14 28 -25 34 -25 6 0 -2 11 -18 25 -37 32 -46 32
-16 0z"/>
<path d="M7351 7744 c0 -11 3 -14 6 -6 3 7 2 16 -1 19 -3 4 -6 -2 -5 -13z"/>
<path d="M8590 7314 c0 -11 5 -14 16 -10 9 3 20 6 25 6 5 0 9 5 9 10 0 6 -11
10 -25 10 -16 0 -25 -6 -25 -16z"/>
<path d="M7531 7004 c0 -11 3 -14 6 -6 3 7 2 16 -1 19 -3 4 -6 -2 -5 -13z"/>
<path d="M7326 6672 c-2 -4 -1 -14 4 -21 10 -17 31 -5 23 14 -6 16 -19 20 -27
7z"/>
<path d="M8700 5791 c0 -6 5 -13 10 -16 6 -3 10 1 10 9 0 9 -4 16 -10 16 -5 0
-10 -4 -10 -9z"/>
<path d="M8740 5660 c0 -5 5 -10 10 -10 6 0 10 5 10 10 0 6 -4 10 -10 10 -5 0
-10 -4 -10 -10z"/>
<path d="M7658 5583 c7 -3 16 -2 19 1 4 3 -2 6 -13 5 -11 0 -14 -3 -6 -6z"/>
<path d="M8240 5580 c0 -5 5 -10 10 -10 6 0 10 5 10 10 0 6 -4 10 -10 10 -5 0
-10 -4 -10 -10z"/>
<path d="M7955 5561 c-6 -11 61 -35 75 -26 14 9 12 35 -3 35 -7 0 -19 -6 -26
-12 -11 -10 -14 -10 -18 0 -5 14 -19 16 -28 3z"/>
<path d="M8300 5469 c0 -5 5 -7 10 -4 6 3 10 8 10 11 0 2 -4 4 -10 4 -5 0 -10
-5 -10 -11z"/>
<path d="M8293 4961 c-15 -14 -128 -41 -181 -45 -48 -3 -87 -16 -48 -16 9 0
27 -7 40 -15 36 -24 149 -2 187 36 10 10 28 19 40 19 11 0 18 4 15 9 -8 12
-43 20 -53 12z"/>
<path d="M8396 4893 c-11 -11 -6 -23 9 -23 8 0 15 4 15 9 0 13 -16 22 -24 14z"/>
<path d="M8027 4323 c-4 -3 -7 -22 -7 -42 0 -41 15 -31 23 17 6 30 -1 41 -16
25z"/>
<path d="M8157 4283 c-4 -3 -7 -13 -7 -22 1 -13 3 -13 11 2 11 19 8 33 -4 20z"/>
<path d="M8065 4140 c4 -14 11 -27 15 -30 3 -3 10 -14 14 -25 5 -11 10 -15 13
-9 2 7 -8 29 -23 50 -20 29 -24 33 -19 14z"/>
<path d="M7760 4140 c0 -5 5 -10 11 -10 5 0 7 5 4 10 -3 6 -8 10 -11 10 -2 0
-4 -4 -4 -10z"/>
<path d="M8960 4956 c0 -9 7 -12 20 -9 11 3 20 9 20 14 0 5 -9 9 -20 9 -11 0
-20 -6 -20 -14z"/>
<path d="M10415 4880 c3 -5 11 -10 16 -10 6 0 7 5 4 10 -3 6 -11 10 -16 10 -6
0 -7 -4 -4 -10z"/>
<path d="M10310 4660 c0 -5 5 -10 10 -10 6 0 10 5 10 10 0 6 -4 10 -10 10 -5
0 -10 -4 -10 -10z"/>
<path d="M10902 4480 c0 -14 2 -19 5 -12 2 6 2 18 0 25 -3 6 -5 1 -5 -13z"/>
<path d="M10920 4249 c0 -5 5 -7 10 -4 6 3 10 8 10 11 0 2 -4 4 -10 4 -5 0
-10 -5 -10 -11z"/>
<path d="M10250 3950 c0 -5 5 -10 10 -10 6 0 10 5 10 10 0 6 -4 10 -10 10 -5
0 -10 -4 -10 -10z"/>
<path d="M10846 3645 c9 -14 19 -24 21 -21 7 7 -16 46 -28 46 -5 0 -2 -11 7
-25z"/>
<path d="M10780 3633 c0 -4 5 -15 10 -23 8 -13 10 -13 10 2 0 9 -4 20 -10 23
-5 3 -10 3 -10 -2z"/>
<path d="M10740 3581 c0 -12 5 -21 10 -21 6 0 10 6 10 14 0 8 -4 18 -10 21 -5
3 -10 -3 -10 -14z"/>
<path d="M10733 3513 c-18 -6 -16 -23 1 -23 17 0 30 16 19 23 -5 2 -14 2 -20
0z"/>
<path d="M10591 3444 c0 -11 3 -14 6 -6 3 7 2 16 -1 19 -3 4 -6 -2 -5 -13z"/>
<path d="M10781 3414 c0 -11 3 -14 6 -6 3 7 2 16 -1 19 -3 4 -6 -2 -5 -13z"/>
<path d="M10620 3404 c0 -8 5 -12 10 -9 6 3 10 10 10 16 0 5 -4 9 -10 9 -5 0
-10 -7 -10 -16z"/>
<path d="M10666 2970 c-4 -20 -14 -34 -31 -40 -29 -11 -33 -27 -7 -32 14 -3
33 4 70 28 7 4 -10 74 -18 74 -4 0 -10 -14 -14 -30z"/>
<path d="M10783 2906 c-9 -11 -8 -15 7 -19 14 -3 18 0 17 14 -1 22 -8 23 -24
5z"/>
<path d="M10680 2781 c0 -6 5 -13 10 -16 6 -3 10 1 10 9 0 9 -4 16 -10 16 -5
0 -10 -4 -10 -9z"/>
<path d="M10740 2744 c0 -9 5 -14 12 -12 18 6 21 28 4 28 -9 0 -16 -7 -16 -16z"/>
<path d="M10775 2720 c-3 -5 1 -10 10 -10 9 0 13 5 10 10 -3 6 -8 10 -10 10
-2 0 -7 -4 -10 -10z"/>
<path d="M10750 2614 c0 -8 5 -12 10 -9 6 4 8 11 5 16 -9 14 -15 11 -15 -7z"/>
<path d="M10820 2610 c0 -5 5 -10 10 -10 6 0 10 5 10 10 0 6 -4 10 -10 10 -5
0 -10 -4 -10 -10z"/>
<path d="M10800 2580 c0 -5 5 -10 11 -10 5 0 7 5 4 10 -3 6 -8 10 -11 10 -2 0
-4 -4 -4 -10z"/>
<path d="M10877 2520 c-3 -11 -2 -20 3 -20 12 0 21 28 11 35 -5 2 -11 -4 -14
-15z"/>
<path d="M10935 2350 c-3 -5 -1 -10 4 -10 6 0 11 5 11 10 0 6 -2 10 -4 10 -3
0 -8 -4 -11 -10z"/>
<path d="M10850 2215 c0 -8 5 -15 10 -15 6 0 10 7 10 15 0 8 -4 15 -10 15 -5
0 -10 -7 -10 -15z"/>
<path d="M10896 2098 c7 -11 35 -10 53 1 10 6 3 9 -22 8 -20 0 -34 -5 -31 -9z"/>
<path d="M5440 3669 c0 -5 5 -7 10 -4 6 3 10 8 10 11 0 2 -4 4 -10 4 -5 0 -10
-5 -10 -11z"/>
<path d="M5508 3303 c6 -2 18 -2 25 0 6 3 1 5 -13 5 -14 0 -19 -2 -12 -5z"/>
<path d="M5566 3172 c-3 -6 3 -12 15 -15 12 -3 19 -1 16 6 -5 15 -24 20 -31 9z"/>
<path d="M5610 3150 c0 -5 5 -10 10 -10 6 0 10 5 10 10 0 6 -4 10 -10 10 -5 0
-10 -4 -10 -10z"/>
<path d="M5920 2140 c0 -5 5 -10 10 -10 6 0 10 5 10 10 0 6 -4 10 -10 10 -5 0
-10 -4 -10 -10z"/>
<path d="M5596 1968 c3 -4 9 -8 15 -8 5 0 9 4 9 8 0 5 -7 9 -15 9 -8 0 -12 -4
-9 -9z"/>
<path d="M5630 1951 c0 -6 5 -13 10 -16 6 -3 10 1 10 9 0 9 -4 16 -10 16 -5 0
-10 -4 -10 -9z"/>
<path d="M5742 1899 c2 -6 8 -10 13 -10 5 0 11 4 13 10 2 6 -4 11 -13 11 -9 0
-15 -5 -13 -11z"/>
<path d="M5840 1890 c0 -5 5 -10 11 -10 5 0 7 5 4 10 -3 6 -8 10 -11 10 -2 0
-4 -4 -4 -10z"/>
<path d="M5585 1851 c-6 -11 9 -23 19 -14 9 9 7 23 -3 23 -6 0 -12 -4 -16 -9z"/>
<path d="M5622 1728 c5 -15 58 -24 58 -10 0 5 -10 12 -22 16 -34 9 -40 7 -36
-6z"/>
<path d="M5565 1590 c-3 -5 3 -10 14 -10 12 0 21 5 21 10 0 6 -6 10 -14 10 -8
0 -18 -4 -21 -10z"/>
<path d="M5781 1584 c0 -11 3 -14 6 -6 3 7 2 16 -1 19 -3 4 -6 -2 -5 -13z"/>
<path d="M5587 1483 c-12 -11 -8 -23 8 -23 8 0 15 -6 15 -12 0 -9 3 -8 10 2
14 22 -15 52 -33 33z"/>
<path d="M5740 1401 c0 -6 5 -13 10 -16 6 -3 10 1 10 9 0 9 -4 16 -10 16 -5 0
-10 -4 -10 -9z"/>
<path d="M5770 1395 c0 -8 5 -15 10 -15 6 0 10 7 10 15 0 8 -4 15 -10 15 -5 0
-10 -7 -10 -15z"/>
<path d="M5600 1360 c0 -13 18 -22 24 -11 3 5 -1 11 -9 15 -8 3 -15 1 -15 -4z"/>
<path d="M5671 1334 c0 -11 3 -14 6 -6 3 7 2 16 -1 19 -3 4 -6 -2 -5 -13z"/>
<path d="M7990 9260 c0 -5 5 -10 11 -10 5 0 7 5 4 10 -3 6 -8 10 -11 10 -2 0
-4 -4 -4 -10z"/>
<path d="M3338 9143 c-10 -3 -18 -9 -18 -14 0 -13 17 -11 26 2 4 8 9 7 15 -2
6 -10 9 -10 9 -2 0 15 -11 20 -32 16z"/>
<path d="M3120 8956 c0 -2 7 -6 15 -10 8 -3 15 -1 15 4 0 6 -7 10 -15 10 -8 0
-15 -2 -15 -4z"/>
<path d="M3095 8930 c-3 -5 1 -10 9 -10 9 0 16 5 16 10 0 6 -4 10 -9 10 -6 0
-13 -4 -16 -10z"/>
<path d="M2960 8919 c0 -5 10 -9 23 -10 21 0 21 -1 2 -10 -15 -6 -11 -7 15 -3
19 4 42 11 50 16 13 8 13 9 -1 5 -9 -3 -33 -2 -53 3 -21 4 -36 4 -36 -1z"/>
<path d="M15660 8860 c0 -6 -8 -9 -18 -6 -13 4 -23 -1 -32 -19 -9 -18 -17 -22
-25 -15 -9 7 -16 6 -25 -5 -15 -18 -37 -20 -43 -2 -3 7 -6 5 -6 -5 -1 -20 -16
-24 -26 -8 -9 14 -27 1 -21 -15 2 -7 -2 -16 -10 -19 -9 -3 -13 -10 -9 -15 3
-5 -7 -11 -22 -13 -17 -2 -32 -12 -40 -28 -7 -14 -17 -24 -23 -22 -5 1 -10 -2
-10 -8 0 -5 -8 -10 -18 -10 -10 0 -28 -7 -40 -16 -13 -9 -30 -13 -38 -10 -9 3
-17 -1 -21 -12 -9 -22 -22 -35 -53 -49 -14 -6 -19 -12 -12 -12 20 -1 14 -26
-10 -36 -13 -6 -22 -18 -22 -27 1 -11 -9 -17 -33 -20 -19 -2 -36 0 -39 4 -3 4
1 8 8 8 8 0 6 5 -5 11 -20 12 -37 4 -37 -17 0 -18 -15 -18 -46 2 -23 15 -24
15 -18 0 4 -9 3 -16 -2 -15 -22 4 -34 -2 -34 -16 0 -9 -7 -18 -15 -21 -22 -9
-18 -27 4 -21 12 3 22 -1 25 -9 3 -8 20 -14 42 -14 28 0 35 -3 30 -15 -3 -9 0
-15 8 -15 8 0 16 4 18 9 5 14 78 25 78 12 0 -6 -9 -11 -20 -11 -11 0 -20 -5
-20 -10 0 -7 13 -8 35 -4 28 5 35 3 35 -10 0 -9 -4 -16 -10 -16 -23 0 -8 -19
18 -22 15 -2 26 -8 24 -15 -1 -7 2 -13 7 -13 5 0 11 6 14 13 2 6 8 0 12 -14 5
-20 14 -28 36 -31 30 -5 36 1 20 18 -5 5 -7 20 -4 35 4 21 10 25 39 25 25 0
33 -4 31 -15 -1 -10 6 -16 18 -17 35 -1 73 -22 80 -45 4 -12 3 -24 -2 -28 -5
-3 -10 -17 -11 -31 -1 -26 -42 -113 -55 -119 -5 -2 0 -9 11 -17 14 -10 28 -11
52 -4 18 5 37 7 43 3 5 -3 19 -6 31 -7 14 -1 22 -9 24 -23 2 -13 8 -20 16 -17
7 3 24 -5 38 -17 22 -19 35 -22 99 -20 40 1 79 7 86 13 14 11 86 13 103 3 6
-4 8 -10 6 -14 -8 -13 39 -33 65 -29 13 2 23 9 21 16 -2 9 4 11 18 7 20 -6 20
-4 20 437 l0 443 -58 0 c-31 0 -63 -4 -69 -8 -7 -4 -30 -3 -50 2 -24 7 -41 7
-47 1 -12 -12 -53 -13 -58 -2 -5 14 -58 24 -58 12z m-443 -398 c-9 -2 -17 -8
-17 -13 0 -5 -9 -9 -20 -9 -21 0 -27 -15 -10 -25 6 -3 10 -1 10 4 0 6 10 11
23 10 21 0 21 -1 2 -9 -20 -9 -20 -9 1 -9 11 -1 26 5 33 12 10 10 11 8 5 -8
-4 -11 -12 -23 -17 -27 -14 -9 -79 2 -97 17 -8 7 -22 15 -30 18 -12 4 -11 6 3
6 10 1 17 9 17 20 0 11 9 23 20 26 11 3 20 13 20 20 0 11 9 9 37 -8 28 -16 33
-23 20 -25z m63 -92 c0 -5 -4 -10 -10 -10 -5 0 -10 5 -10 10 0 6 5 10 10 10 6
0 10 -4 10 -10z"/>
<path d="M2955 8818 c-9 -22 4 -43 17 -30 7 7 7 16 0 29 -10 17 -11 17 -17 1z"/>
<path d="M3040 8799 c0 -5 5 -7 10 -4 6 3 10 8 10 11 0 2 -4 4 -10 4 -5 0 -10
-5 -10 -11z"/>
<path d="M2498 8560 c-3 -17 -1 -33 4 -36 4 -3 8 4 8 16 0 11 7 23 16 27 13 5
13 7 2 14 -21 14 -25 11 -30 -21z"/>
<path d="M2495 8490 c3 -5 10 -10 16 -10 5 0 9 5 9 10 0 6 -7 10 -16 10 -8 0
-12 -4 -9 -10z"/>
<path d="M14876 8454 c-9 -23 -2 -28 13 -10 7 8 8 17 3 20 -6 3 -13 -1 -16
-10z"/>
<path d="M2368 8333 c6 -2 18 -2 25 0 6 3 1 5 -13 5 -14 0 -19 -2 -12 -5z"/>
<path d="M15280 8304 c0 -8 5 -12 10 -9 6 3 10 10 10 16 0 5 -4 9 -10 9 -5 0
-10 -7 -10 -16z"/>
<path d="M2310 8290 c0 -5 12 -10 26 -10 14 0 23 4 19 10 -3 6 -15 10 -26 10
-10 0 -19 -4 -19 -10z"/>
<path d="M15111 8288 c0 -7 4 -22 8 -32 5 -14 10 -16 15 -7 4 6 16 9 27 6 28
-9 14 20 -17 34 -31 14 -34 14 -33 -1z"/>
<path d="M15070 8264 c0 -14 4 -23 10 -19 6 3 10 15 10 26 0 10 -4 19 -10 19
-5 0 -10 -12 -10 -26z"/>
<path d="M15040 8240 c0 -5 5 -10 11 -10 5 0 7 5 4 10 -3 6 -8 10 -11 10 -2 0
-4 -4 -4 -10z"/>
<path d="M2327 8136 c-4 -10 -1 -13 9 -9 7 3 14 9 14 14 0 14 -17 10 -23 -5z"/>
<path d="M2312 7970 c0 -14 2 -19 5 -12 2 6 2 18 0 25 -3 6 -5 1 -5 -13z"/>
<path d="M2280 7822 c0 -4 9 -8 20 -9 11 -1 18 2 15 8 -7 11 -35 12 -35 1z"/>
<path d="M1540 7230 c0 -5 5 -10 10 -10 6 0 10 5 10 10 0 6 -4 10 -10 10 -5 0
-10 -4 -10 -10z"/>
<path d="M1590 7220 c-8 -5 -12 -11 -10 -14 3 -2 14 2 24 10 22 15 10 19 -14
4z"/>
<path d="M9074 6949 c-7 -12 52 -77 61 -67 4 4 -1 18 -10 32 -9 14 -14 30 -10
36 3 5 -2 10 -14 10 -11 0 -23 -5 -27 -11z"/>
<path d="M3080 5310 c0 -5 5 -10 11 -10 5 0 7 5 4 10 -3 6 -8 10 -11 10 -2 0
-4 -4 -4 -10z"/>
<path d="M3100 5280 c0 -5 5 -10 10 -10 6 0 10 5 10 10 0 6 -4 10 -10 10 -5 0
-10 -4 -10 -10z"/>
<path d="M6268 5113 c6 -2 18 -2 25 0 6 3 1 5 -13 5 -14 0 -19 -2 -12 -5z"/>
<path d="M6115 4970 c-3 -5 -1 -10 4 -10 6 0 11 5 11 10 0 6 -2 10 -4 10 -3 0
-8 -4 -11 -10z"/>
<path d="M4255 4690 c-3 -5 1 -10 9 -10 9 0 16 5 16 10 0 6 -4 10 -9 10 -6 0
-13 -4 -16 -10z"/>
<path d="M4300 4670 c0 -5 5 -10 11 -10 5 0 7 5 4 10 -3 6 -8 10 -11 10 -2 0
-4 -4 -4 -10z"/>
</g>
</svg>
